<?xml version="1.0" encoding="UTF-8"?>
<svg id="Camada_1" data-name="Camada 1" xmlns="http://www.w3.org/2000/svg" xmlns:xlink="http://www.w3.org/1999/xlink" viewBox="0 0 379.72 109.12">
  <defs>
    <style>
      .cls-1 {
        fill: #edf5fb;
      }

      .cls-2 {
        fill: #4486ff;
      }

      .cls-3 {
        fill: #fff;
      }

      .cls-4 {
        fill: none;
      }

      .cls-5 {
        fill: #f1f8fc;
      }

      .cls-6 {
        fill: #7c99c3;
      }

      .cls-7 {
        fill: #fbfcfc;
      }

      .cls-8 {
        fill: #d1e5f8;
      }

      .cls-9 {
        fill: #fcfcfd;
      }

      .cls-10 {
        fill: #11d3c9;
      }

      .cls-11 {
        fill: #fbfbfc;
      }

      .cls-12 {
        clip-path: url(#clippath);
      }

      .cls-13 {
        fill: #26406a;
      }
    </style>
    <clipPath id="clippath">
      <rect class="cls-4" x="201.72" y="30.12" width="178" height="79"/>
    </clipPath>
  </defs>
  <rect class="cls-2" width="92.44" height="92.44"/>
  <g class="cls-12">
    <g>
      <path class="cls-8" d="M205.01,99.89c.9,1.44,2.23,2.22,3.91,2.7l10.77,3.08c2.34.67,4.52.73,6.99.43l28.18-3.38c1.98-.24,3.62-.92,4.74-2.52,1.45.6,3.33,1.19,3.13,2.29-.16.87-1.98,1.59-3.35,1.83-11.22,1.93-22.4,3.44-33.72,4.67-2.52.27-4.78.16-7.15-.59l-11.71-3.71c-1.91-.61-4.86-1.46-5.07-2.6-.19-1.02,1.71-1.88,3.27-2.2h0Z"/>
      <path class="cls-3" d="M273.7,62.67c1.52,4.33,6.53,4.88,10.69,2.81l1.29,3.27c-3,1.48-6.34,1.81-9.51,1.03-6.01-1.47-8.45-7.68-6.84-13.56.83-3.04,3.02-5.41,6.01-6.44,3.43-1.18,7.23-.88,10.39.87l-1.42,3.2c-1.71-.94-3.54-1.38-5.45-1.22-2.41.19-4.35,1.67-5.15,3.91-.71,2-.73,4.12-.02,6.13h0Z"/>
      <path class="cls-3" d="M326.38,69.73l-4.3.05-3.48-5.28-3.3,5.26h-4.24s5.24-7.54,5.24-7.54l-4.97-7.08,4.43-.02,3.13,4.67,2.98-4.7,4.16.02-4.95,7.04,5.31,7.59Z"/>
      <path class="cls-3" d="M308.78,55.09h-3.94v14.73h3.94v-14.73Z"/>
      <path class="cls-3" d="M306.82,52.96c1.27,0,2.3-1.03,2.3-2.3s-1.03-2.3-2.3-2.3-2.3,1.03-2.3,2.3,1.03,2.3,2.3,2.3Z"/>
      <path class="cls-3" d="M337.66,68.17c-2.34,2.46-6.87,2.69-9.02.18-.97-1.13-1.08-2.59-.63-4.15.89-3.04,5.96-3.54,9.3-3.55.37-1.38-.53-2.58-1.97-2.75-1.98-.23-3.88.14-5.86.84l-.43-2.87c2.44-1.06,5.17-1.46,7.83-.99,2.55.44,4.34,2.43,4.35,5.01l.07,9.86-3.41-.02c0-.6.05-.98-.23-1.57h0ZM337.42,64.83v-1.65c-2.59-.24-5.97.31-5.69,2.43.11.85.78,1.38,1.69,1.53,1.7.29,3.55-.48,4-2.3h0Z"/>
      <path class="cls-3" d="M300.81,57.71c-.49.78.3,1.73-.23,3.57l-.03,2.12c-.52,2.72.65,4.42-.18,6.05l-2.31-.03v-1.14c.54-.31-1.35-.92-2.12-.69l-1.78.52c-.94.48-1.61.82-2.74.87-.52.03-1.13.43-1.67.18-2.08-1.34-2.2-4.49-.96-6,.95-1.15,2.29-1.94,3.76-2.07l4.92-.45c.23-.7.06-1.41-.44-2-1.16-1.36-4.91-.72-7.32.08l-.44-2.9c3.99-1.59,9.79-2.01,11.52,1.88h0ZM297.6,64.87v-1.73c-2.68-.12-5.94.25-5.64,2.48.1.76.71,1.33,1.58,1.51,1.72.36,3.62-.4,4.06-2.27h0Z"/>
      <path class="cls-3" d="M298.06,69.43l2.31.03c.83-1.63-.34-3.33.18-6.05l.03-2.12c.53-1.84-.26-2.79.23-3.57.38.85.63,1.7.63,2.77v9.3s-3.38.08-3.38.08c-.07-.22,0-.35,0-.44h0Z"/>
      <path class="cls-3" d="M298.07,68.29c-.27,0-.43.14-.68.35-2.16,1.78-5.35,2.01-7.62.53.54.25,1.15-.16,1.67-.18,1.12-.06,1.8-.4,2.74-.87l1.78-.52c.77-.23,2.66.38,2.12.69h0Z"/>
      <path class="cls-3" d="M321.14,99.53c-.03-.76.22-1.27.41-1.95,1.55.75,3.12,1.08,4.81.83,2.25-.34,3.36-2.47,2.89-4.87-1.24,1.3-2.69,1.78-4.48,1.58-1.39-.16-2.92-.92-3.75-2.38-1.39-2.44-1.4-5.62.08-7.98.89-1.42,2.22-2.27,3.52-2.51,1.81-.33,3.38.19,4.62,1.34.37-.13.48-.59.37-.96.7-.19,1.27-.13,2.07-.08l-.15,12.65c-.02,1.95-1.21,3.83-2.97,4.53-2.37.94-4.97.68-7.43-.2h0ZM329.28,90.82c.2-1.42.14-2.84.01-4.17-.15-1.49-1.42-2.48-2.75-2.66-1.34-.17-2.72.48-3.45,1.74-.97,1.66-.96,3.77-.22,5.53.61,1.44,1.92,2.15,3.41,2.1,1.31-.04,2.78-.91,3-2.55h0Z"/>
      <path class="cls-3" d="M306.13,92.78c.32.6.43,1.07.48,1.67-1.95.86-4.11,1.18-6.22.7-3.93-.89-5.23-5.12-4.07-8.88.57-1.86,2.13-3.37,3.73-3.83,2.08-.6,4.23-.31,5.67,1.17s1.72,3.71,1.51,5.64h-8.94c-.21,2.22,1.35,4.11,3.64,4.31,1.43.13,2.75-.17,4.2-.79h0ZM305.05,87.5c0-1.51-.53-2.47-1.28-3.06-.86-.67-2.08-.75-3.08-.38-1.44.53-2.32,2.04-2.37,3.47l6.73-.04Z"/>
      <path class="cls-3" d="M344.11,92.76c.33.58.4,1.07.57,1.67-1.94.85-4.04,1.18-6.18.74-2.33-.48-4.04-2.31-4.43-4.67-.34-2.02-.06-4.16,1.05-5.83,1.12-1.67,2.77-2.49,4.73-2.54,2.15-.05,3.97.98,4.87,2.97.6,1.32.64,2.8.48,4.19l-8.94-.03c-.07,2.35,1.52,4.16,3.79,4.29,1.37.12,2.62-.13,4.05-.8h0ZM343.03,87.5c.02-1.49-.46-2.4-1.19-3-.84-.68-2.01-.81-3.06-.49-1.53.47-2.4,2.01-2.48,3.54l6.74-.05Z"/>
      <path class="cls-3" d="M378.54,92.8l.55,1.61c-1.58.76-3.24,1.02-5.01.94-3.07-.14-5.37-2.36-5.67-5.39-.41-4.13,1.74-7.7,5.86-7.82,2.54-.07,4.61,1.46,5.24,3.94.26,1.05.26,2.11.14,3.2h-8.98c-.03,2.03,1.13,3.72,3.03,4.18,1.62.3,3.14.07,4.83-.67h0ZM377.45,87.55c.08-1.32-.36-2.31-1.21-3.12-1.18-.74-2.78-.81-3.95.03-1,.73-1.52,1.91-1.59,3.08h6.75Z"/>
      <path class="cls-3" d="M277.1,86.96l-.09,8.14-2.28.02-.04-12.58,2.01.02c.09.57,0,1,.29,1.68.91-1.36,2.23-1.93,3.84-2.06,2.48-.21,4.62,1.52,4.63,4.11l.04,8.82h-2.29l-.06-8.39c-.01-1.69-1.3-2.7-2.91-2.61-1.61.09-3.12,1.07-3.14,2.86Z"/>
      <path class="cls-3" d="M294.41,93.34l.22,1.7c-1.15.31-2.39.46-3.62.13s-1.89-1.48-1.9-2.69l-.05-8.21c-.7-.13-1.29-.06-1.89-.02l-.02-1.69,1.91-.04.03-3.26,2.27-.44v3.65s3.22.05,3.22.05l.03,1.68-3.26.07v7.63c0,.69.37,1.4,1.02,1.58s1.28.05,2.03-.13Z"/>
      <path class="cls-3" d="M367.09,93.36l.19,1.72c-1.02.26-2.05.35-3.1.2-1.44-.2-2.34-1.35-2.35-2.81l-.05-8.2-1.94-.06v-1.68s1.9-.06,1.9-.06l.07-3.25,2.24-.52.03,3.74,3.09.1.05,1.64-3.14.06v7.81c0,.9.69,1.61,1.57,1.49l1.43-.19h0Z"/>
      <path class="cls-3" d="M356.94,83.26c-.28.9,0,2.27-.73,3.11-.21-.85-.43-1.23-.88-1.55-1.06-.75-2.24-1.05-3.55-.47-1.02.46-1.97,1.53-1.97,2.86v7.9h-2.28l-.06-12.59,2.05.03c0,.64-.01,1.12.23,1.64,1.81-2.37,5.18-2.72,7.18-.94h0Z"/>
      <path class="cls-3" d="M312.6,95.19c-.62.1-1.5.27-2.15-.1-.58-.33-.83-1.14-.83-1.84v-16.74s2.27,0,2.27,0l.04,16.29.67,2.38h0Z"/>
      <path class="cls-3" d="M268.86,77.36v17.75s2.32,0,2.32,0v-17.75s-2.32,0-2.32,0Z"/>
      <path class="cls-3" d="M315.32,82.5v12.62s2.3,0,2.3,0v-12.62s-2.3,0-2.3,0Z"/>
      <path class="cls-3" d="M355.34,84.83c.45.31.66.69.88,1.55.73-.85.45-2.22.73-3.11.66.59,1.27,1.47,1.28,2.59l.1,9.25h-2.35s.03-7.1.03-7.1c0-1.17-.15-2.2-.66-3.18Z"/>
      <path class="cls-3" d="M316.47,79.99c.8,0,1.44-.64,1.44-1.44s-.64-1.44-1.44-1.44-1.44.64-1.44,1.44.64,1.44,1.44,1.44Z"/>
      <path class="cls-10" d="M243.39,57.35l-.74.83c-.07.08-.11.27-.19.33-.85.66-1.5,1.69-2,2.61-.29.33-.77.69-1.11,1.11l-1.41,1.73c-.25.3-.75.69-1.13,1.08-.73-.28-1.1-.93-1.55-1.44l-1.72-1.96c-.41-.47-.74-.94-1.17-1.39-.43-.45-.78-1.19-1.41-1.49-.21-.68-.91-1.26-1.37-1.79l-.93-1.05c-.22-.25-.39-.28-.6-.3.03-.24-.02-.46-.17-.66l-2.52-3.33c-4.67-6.69-2.68-15.86,4.48-19.79,5.62-3.09,12.54-1.96,16.81,2.7,4.3,4.69,4.74,11.77,1.04,17.1l-4.33,5.69h0ZM229.29,49.93c2.23,2.73,6.23,3.19,8.72.77l5.23-5.07c2.24-2.17,2.31-5.66.44-7.94-1.86-2.27-5.42-3.17-7.87-1.27l-6.25,5.87c-2.1,1.97-2.11,5.38-.27,7.63h0Z"/>
      <path d="M230.98,58.77c.22.75.49,1.46,1.41,1.49.43.44.76.92,1.17,1.39-1.46.11-3.25-.31-3.61-1.87l-.54-2.38c.11-.12.16-.26.2-.42.47.53,1.17,1.1,1.37,1.79h0Z"/>
      <path class="cls-1" d="M242.46,58.51l.58,1.62c.09.25.05.53-.05.72-.1.17-.4.35-.72.34l-1.82-.07c.51-.92,1.15-1.95,2-2.61Z"/>
      <path class="cls-8" d="M232.38,60.26c-.91-.03-1.18-.74-1.41-1.49.63.3.98,1.05,1.41,1.49Z"/>
      <path class="cls-11" d="M229.29,49.93c-1.85-2.26-1.83-5.67.27-7.63l6.25-5.87c2.45-1.9,6-1,7.87,1.27,1.87,2.28,1.79,5.77-.44,7.94l-5.23,5.07c-2.49,2.41-6.49,1.96-8.72-.77h0ZM239.89,45.79l2.11-2.2c.95-1.52.85-3.4-.28-4.7-1.09-1.25-3.08-1.7-4.56-.74-.99.64-1.69,1.54-2.54,2.43l5.27,5.2h0ZM238.08,47.38l-5.13-5.19-1.81,1.68c-1.28,1.48-1.15,3.65.1,4.95,1.33,1.39,3.55,1.66,5.04.39.66-.56,1.31-1.07,1.8-1.84h0Z"/>
      <path class="cls-2" d="M239.89,45.79l-5.27-5.2c.85-.89,1.55-1.79,2.54-2.43,1.48-.97,3.47-.51,4.57.74,1.13,1.3,1.23,3.18.28,4.7l-2.11,2.2h0Z"/>
      <path class="cls-2" d="M238.08,47.38c-.48.76-1.14,1.28-1.8,1.84-1.49,1.27-3.71,1-5.04-.39-1.24-1.3-1.37-3.47-.1-4.95l1.81-1.68,5.13,5.19h0Z"/>
      <path d="M228.07,55.64c.21.02.39.05.6.3l.93,1.05c-.04.15-.1.29-.2.42-.25-.26-.62-.35-1.05-.39l-8.83-.94c-.48-.05-.88.02-1.24.04-.45.02-.77-.03-1.19.19-.55.28-1.04.6-1.58,1.08l-8.83,7.95c-.82.74-1.15,1.87-1.15,2.95v5.89s-.02.74-.02.74l.02,22.44c0,1.87,1.31,3.36,3.03,3.85l12.78,3.64c1.09.31,2.17.19,3.19.21.44,0,1.02.07,1.2-.41.75.2,1.45.17,2.34.06l27.72-3.37c2.3-.28,3.49-2.43,3.48-4.54l-.07-21.86.09-.75-.07-5.61c-.02-1.39-1.12-2.13-1.99-2.89l-6.13-5.4c-.53-.47-1.29-.86-2.01-.93l-5.2-.48c-.51-.05-.97-.2-1.27-.68l.74-.83,6.13.85c1.45.19,2.61,1.19,3.67,2.15l6.16,5.57c.81.73,1.19,2,1.19,3.06l-.02,8.87c-.36.22-.36.95,0,1.17v3.9c-.25.05-.24.29-.25.49,0,.2,0,.44.26.49v13.69c0,.95-.44,1.93-.91,2.61-1.12,1.6-2.76,2.29-4.74,2.52l-28.18,3.38c-2.47.3-4.65.23-6.99-.43l-10.77-3.08c-1.68-.48-3.01-1.26-3.91-2.7-.57-.91-.7-1.93-.7-3.14v-28.43c0-1.71.57-3.06,1.81-4.16l8.55-7.62c1.45-1.29,2.99-1.9,4.97-1.71l8.43.81h0Z"/>
      <path class="cls-13" d="M260.51,79.02c-.35-.23-.35-.95,0-1.17v1.17Z"/>
      <path class="cls-13" d="M260.53,83.9c-.27-.05-.26-.28-.26-.49s0-.44.25-.49l.02.98Z"/>
      <path class="cls-11" d="M235.26,63.61c.45.51.81,1.16,1.55,1.44.38-.39.88-.78,1.13-1.08l17.84,1.96c.58.06,1.02.18,1.48-.25.86.76,1.97,1.51,1.99,2.89l.07,5.61-36.64.04-.03-9.97c0-.72-.39-1.35-.74-1.92l-.75-1.24c.64-.12,1.11.15,1.65.51,1.05.72,2.28,1.02,3.55,1.18l7.13.9c.65.08,1.23.16,1.78-.08h0ZM255.27,68.84l-27.21-.55c-.89-.02-1.46.74-1.39,1.44.08.78.73,1.18,1.6,1.2l26.72.53c.82.02,1.33-.49,1.41-1.13.07-.55-.18-1.46-1.13-1.48h0Z"/>
      <path class="cls-1" d="M257.25,65.67c-.45.43-.89.32-1.48.25l-17.84-1.96,1.41-1.73,2.97.19c1.08.06,2.12-.8,2.05-1.88l-.45-1.68,5.2.48c.72.07,1.48.46,2.01.93l6.13,5.4h0Z"/>
      <path class="cls-5" d="M229.4,57.4l.54,2.38c.35,1.56,2.14,1.98,3.61,1.87l1.72,1.96c-.55.23-1.14.16-1.78.08l-7.13-.9c-1.27-.16-2.5-.46-3.55-1.18-.54-.37-1.01-.64-1.65-.51l-2.35-3.48c-.32-.47-.58-.92-.51-1.5.36-.02.75-.09,1.24-.04l8.83.94c.43.05.81.14,1.05.39h0Z"/>
      <path d="M243.91,58.86l.45,1.68c.07,1.08-.97,1.94-2.05,1.88l-2.97-.19c.34-.42.82-.78,1.11-1.11l1.82.07c.32,0,.62-.17.72-.34.11-.18.14-.47.05-.72l-.58-1.62c.08-.06.12-.26.19-.33.3.47.75.63,1.27.68h0Z"/>
      <path class="cls-7" d="M259.22,74.92l.07,21.86c0,2.11-1.18,4.26-3.48,4.54l-27.72,3.37c-.89.11-1.59.14-2.34-.06-1.69-.5-3.07-1.97-3.08-3.98l-.03-25.76,36.58.03h0ZM245.09,83.07c1.3-.34,1.93-1.37,1.81-2.53-.1-1.01-.89-2.03-2.07-2.03h-5.63c-1.31,0-2.24.99-2.27,2.16-.03,1.18.73,2.1,1.94,2.37l6.22.03h0Z"/>
      <path class="cls-9" d="M224.54,105.04c-1.02-.02-2.1.11-3.19-.21l-12.78-3.64c-1.72-.49-3.03-1.98-3.03-3.85l-.02-22.44h16.29s-.02,25.37-.02,25.37c0,2.14,1,3.78,2.75,4.77h0ZM216.16,81.18c.22.02.25-.55.09-.56l-5.6-.55c-.2-.02-.4.03-.49.09-.08.05-.05.49.05.5l5.95.52h0ZM216.14,83.66c.22.02.22-.49.08-.54l-.34-.11-5.25-.49c-.3-.03-.48.06-.5.29,0,.11.04.3.29.33l5.72.52h0ZM216.19,86.21c.14-.14.14-.46.03-.55-.06-.05-.17-.11-.34-.13l-5.43-.59c-.26-.03-.37.1-.4.23-.04.15.05.36.27.38l5.87.65h0ZM216.2,88.9c.13.02.14-.6.05-.58s-.17-.08-.35-.1l-5.6-.71c-.15-.02-.26.28-.22.38.04.11.17.25.39.28l5.73.73h0ZM215.96,91.61c.3.04.37-.27.33-.39-.02-.07-.05-.23-.22-.26l-5.45-.74c-.2-.03-.37,0-.47.09-.08.06-.05.44.05.46l5.76.84h0Z"/>
      <path class="cls-9" d="M205.52,74.17v-5.89c.01-1.08.35-2.22,1.17-2.95l8.83-7.95c.54-.48,1.03-.8,1.58-1.08.38.17.33.63.52.92l3.39,5.2c.55.77.83,1.59.83,2.55l-.03,9.24-16.27-.04h0Z"/>
      <path d="M218.28,56.1c-.06.58.2,1.03.51,1.5l2.35,3.48.75,1.24c.35.57.74,1.2.74,1.92l.03,9.97,36.64-.04-.09.75-36.58-.03.03,25.76c0,2.01,1.39,3.48,3.08,3.98-.18.48-.77.42-1.2.41-1.75-.99-2.75-2.63-2.75-4.77l.02-25.38h-16.29s0-.73,0-.73l16.27.04.03-9.24c0-.96-.28-1.78-.83-2.55l-3.39-5.2c-.19-.29-.14-.76-.52-.92.42-.22.73-.17,1.19-.19h0Z"/>
      <path class="cls-2" d="M255.27,68.84c.94.02,1.19.93,1.13,1.48-.08.64-.59,1.15-1.41,1.13l-26.72-.53c-.87-.02-1.52-.42-1.6-1.2-.07-.7.5-1.46,1.39-1.44l27.21.55h0Z"/>
      <path class="cls-10" d="M245.09,83.07l-6.22-.03c-1.22-.26-1.97-1.23-1.94-2.37.03-1.14.96-2.17,2.27-2.17h5.63c1.18,0,1.97,1.03,2.07,2.04.12,1.16-.52,2.19-1.81,2.53h0Z"/>
      <path class="cls-6" d="M216.19,86.21l-5.87-.65c-.22-.03-.31-.23-.27-.38.03-.13.14-.26.4-.23l5.43.59c.18.02.28.08.34.13.11.09.12.41-.03.55h0Z"/>
      <path class="cls-6" d="M216.14,83.66l-5.72-.52c-.25-.02-.29-.22-.29-.33.02-.23.21-.32.5-.29l5.25.49.34.11c.14.04.14.56-.08.54h0Z"/>
      <path class="cls-6" d="M216.2,88.9l-5.73-.73c-.22-.03-.35-.17-.39-.28-.03-.1.07-.4.22-.38l5.6.71c.17.02.27.12.35.1.08-.02.07.6-.05.58h0Z"/>
      <path class="cls-6" d="M215.96,91.61l-5.76-.84c-.11-.02-.13-.4-.05-.46.1-.08.28-.11.47-.09l5.45.74c.17.02.2.19.22.26.04.12-.03.43-.33.39h0Z"/>
      <path class="cls-6" d="M216.16,81.18l-5.95-.52c-.1,0-.14-.44-.05-.5.1-.06.29-.11.49-.09l5.6.55c.16.02.14.58-.09.56h0Z"/>
      <path class="cls-3" d="M342.72,80.66l-2.92-2.87h-.04l-2.92,2.87h-1.22l3.62-4.15h1.09l3.62,4.15h-1.22Z"/>
    </g>
  </g>
  <path class="cls-8" d="M16.62,76.25c.9,1.44,2.23,2.22,3.91,2.7l10.77,3.08c2.34.67,4.52.73,6.99.43l28.18-3.38c1.98-.24,3.62-.92,4.74-2.52,1.45.6,3.33,1.19,3.13,2.29-.16.87-1.98,1.59-3.35,1.83-11.22,1.93-22.4,3.44-33.72,4.67-2.52.27-4.78.16-7.15-.59l-11.71-3.71c-1.91-.61-4.86-1.46-5.07-2.6-.19-1.02,1.71-1.88,3.27-2.2h0Z"/>
  <path class="cls-10" d="M54.99,33.7l-.74.83c-.07.08-.11.27-.19.33-.85.66-1.5,1.69-2,2.61-.29.33-.77.69-1.11,1.11l-1.41,1.73c-.25.3-.75.69-1.13,1.08-.73-.28-1.1-.93-1.55-1.44l-1.72-1.96c-.41-.47-.74-.94-1.17-1.39-.43-.45-.78-1.19-1.41-1.49-.21-.68-.91-1.26-1.37-1.79l-.93-1.05c-.22-.25-.39-.28-.6-.3.03-.24-.02-.46-.17-.66l-2.52-3.33c-4.67-6.69-2.68-15.86,4.48-19.79,5.62-3.09,12.54-1.96,16.81,2.7,4.3,4.69,4.74,11.77,1.04,17.1l-4.33,5.69h0ZM40.9,26.29c2.23,2.73,6.23,3.19,8.72.77l5.23-5.07c2.24-2.17,2.31-5.66.44-7.94-1.86-2.27-5.42-3.17-7.87-1.27l-6.25,5.87c-2.1,1.97-2.11,5.38-.27,7.63h0Z"/>
  <path d="M42.58,35.12c.22.75.49,1.46,1.41,1.49.43.44.76.92,1.17,1.39-1.46.11-3.25-.31-3.61-1.87l-.54-2.38c.11-.12.16-.26.2-.42.47.53,1.17,1.1,1.37,1.79h0Z"/>
  <path class="cls-1" d="M54.07,34.87l.58,1.62c.09.25.05.53-.05.72-.1.17-.4.35-.72.34l-1.82-.07c.51-.92,1.15-1.95,2-2.61Z"/>
  <path class="cls-8" d="M43.99,36.61c-.91-.03-1.18-.74-1.41-1.49.63.3.98,1.05,1.41,1.49Z"/>
  <path class="cls-11" d="M40.9,26.29c-1.85-2.26-1.83-5.67.27-7.63l6.25-5.87c2.45-1.9,6-1,7.87,1.27,1.87,2.28,1.79,5.77-.44,7.94l-5.23,5.07c-2.49,2.41-6.49,1.96-8.72-.77h0ZM51.5,22.15l2.11-2.2c.95-1.52.85-3.4-.28-4.7-1.09-1.25-3.08-1.7-4.56-.74-.99.64-1.69,1.54-2.54,2.43l5.27,5.2h0ZM49.69,23.73l-5.13-5.19-1.81,1.68c-1.28,1.48-1.15,3.65.1,4.95,1.33,1.39,3.55,1.66,5.04.39.66-.56,1.31-1.07,1.8-1.84h0Z"/>
  <path class="cls-2" d="M51.5,22.15l-5.27-5.2c.85-.89,1.55-1.79,2.54-2.43,1.48-.97,3.47-.51,4.57.74,1.13,1.3,1.23,3.18.28,4.7l-2.11,2.2h0Z"/>
  <path class="cls-2" d="M49.69,23.73c-.48.76-1.14,1.28-1.8,1.84-1.49,1.27-3.71,1-5.04-.39-1.24-1.3-1.37-3.47-.1-4.95l1.81-1.68,5.13,5.19h0Z"/>
  <path d="M39.68,31.99c.21.02.39.05.6.3l.93,1.05c-.04.15-.1.29-.2.42-.25-.26-.62-.35-1.05-.39l-8.83-.94c-.48-.05-.88.02-1.24.04-.45.02-.77-.03-1.19.19-.55.28-1.04.6-1.58,1.08l-8.83,7.95c-.82.74-1.15,1.87-1.15,2.95v5.89s-.02.74-.02.74l.02,22.44c0,1.87,1.31,3.36,3.03,3.85l12.78,3.64c1.09.31,2.17.19,3.19.21.44,0,1.02.07,1.2-.41.75.2,1.45.17,2.34.06l27.72-3.37c2.3-.28,3.49-2.43,3.48-4.54l-.07-21.86.09-.75-.07-5.61c-.02-1.39-1.12-2.13-1.99-2.89l-6.13-5.4c-.53-.47-1.29-.86-2.01-.93l-5.2-.48c-.51-.05-.97-.2-1.27-.68l.74-.83,6.13.85c1.45.19,2.61,1.19,3.67,2.15l6.16,5.57c.81.73,1.19,2,1.19,3.06l-.02,8.87c-.36.22-.36.95,0,1.17v3.9c-.25.05-.24.29-.25.49,0,.2,0,.44.26.49v13.69c0,.95-.44,1.93-.91,2.61-1.12,1.6-2.76,2.29-4.74,2.52l-28.18,3.38c-2.47.3-4.65.23-6.99-.43l-10.77-3.08c-1.68-.48-3.01-1.26-3.91-2.7-.57-.91-.7-1.93-.7-3.14v-28.43c0-1.71.57-3.06,1.81-4.16l8.55-7.62c1.45-1.29,2.99-1.9,4.97-1.71l8.43.81h0Z"/>
  <path class="cls-13" d="M72.12,55.38c-.35-.23-.35-.95,0-1.17v1.17Z"/>
  <path class="cls-13" d="M72.14,60.25c-.27-.05-.26-.28-.26-.49s0-.44.25-.49l.02.98Z"/>
  <path class="cls-11" d="M46.87,39.96c.45.51.81,1.16,1.55,1.44.38-.39.88-.78,1.13-1.08l17.84,1.96c.58.06,1.02.18,1.48-.25.86.76,1.97,1.51,1.99,2.89l.07,5.61-36.64.04-.03-9.97c0-.72-.39-1.35-.74-1.92l-.75-1.24c.64-.12,1.11.15,1.65.51,1.05.72,2.28,1.02,3.55,1.18l7.13.9c.65.08,1.23.16,1.78-.08h0ZM66.88,45.19l-27.21-.55c-.89-.02-1.46.74-1.39,1.44.08.78.73,1.18,1.6,1.2l26.72.53c.82.02,1.33-.49,1.41-1.13.07-.55-.18-1.46-1.13-1.48h0Z"/>
  <path class="cls-1" d="M68.86,42.02c-.45.43-.89.32-1.48.25l-17.84-1.96,1.41-1.73,2.97.19c1.08.06,2.12-.8,2.05-1.88l-.45-1.68,5.2.48c.72.07,1.48.46,2.01.93l6.13,5.4h0Z"/>
  <path class="cls-5" d="M41.01,33.75l.54,2.38c.35,1.56,2.14,1.98,3.61,1.87l1.72,1.96c-.55.23-1.14.16-1.78.08l-7.13-.9c-1.27-.16-2.5-.46-3.55-1.18-.54-.37-1.01-.64-1.65-.51l-2.35-3.48c-.32-.47-.58-.92-.51-1.5.36-.02.75-.09,1.24-.04l8.83.94c.43.05.81.14,1.05.39h0Z"/>
  <path d="M55.52,35.21l.45,1.68c.07,1.08-.97,1.94-2.05,1.88l-2.97-.19c.34-.42.82-.78,1.11-1.11l1.82.07c.32,0,.62-.17.72-.34.11-.18.14-.47.05-.72l-.58-1.62c.08-.06.12-.26.19-.33.3.47.75.63,1.27.68h0Z"/>
  <path class="cls-7" d="M70.83,51.28l.07,21.86c0,2.11-1.18,4.26-3.48,4.54l-27.72,3.37c-.89.11-1.59.14-2.34-.06-1.69-.5-3.07-1.97-3.08-3.98l-.03-25.76,36.58.03h0ZM56.69,59.42c1.3-.34,1.93-1.37,1.81-2.53-.1-1.01-.89-2.03-2.07-2.03h-5.63c-1.31,0-2.24.99-2.27,2.16-.03,1.18.73,2.1,1.94,2.37l6.22.03h0Z"/>
  <path class="cls-9" d="M36.15,81.39c-1.02-.02-2.1.11-3.19-.21l-12.78-3.64c-1.72-.49-3.03-1.98-3.03-3.85l-.02-22.44h16.29s-.02,25.37-.02,25.37c0,2.14,1,3.78,2.75,4.77h0ZM27.76,57.53c.22.02.25-.55.09-.56l-5.6-.55c-.2-.02-.4.03-.49.09-.08.05-.05.49.05.5l5.95.52h0ZM27.74,60.01c.22.02.22-.49.08-.54l-.34-.11-5.25-.49c-.3-.03-.48.06-.5.29,0,.11.04.3.29.33l5.72.52h0ZM27.8,62.56c.14-.14.14-.46.03-.55-.06-.05-.17-.11-.34-.13l-5.43-.59c-.26-.03-.37.1-.4.23-.04.15.05.36.27.38l5.87.65h0ZM27.81,65.25c.13.02.14-.6.05-.58s-.17-.08-.35-.1l-5.6-.71c-.15-.02-.26.28-.22.38.04.11.17.25.39.28l5.73.73h0ZM27.57,67.97c.3.04.37-.27.33-.39-.02-.07-.05-.23-.22-.26l-5.45-.74c-.2-.03-.37,0-.47.09-.08.06-.05.44.05.46l5.76.84h0Z"/>
  <path class="cls-9" d="M17.13,50.52v-5.89c.01-1.08.35-2.22,1.17-2.95l8.83-7.95c.54-.48,1.03-.8,1.58-1.08.38.17.33.63.52.92l3.39,5.2c.55.77.83,1.59.83,2.55l-.03,9.24-16.27-.04h0Z"/>
  <path d="M29.89,32.46c-.06.58.2,1.03.51,1.5l2.35,3.48.75,1.24c.35.57.74,1.2.74,1.92l.03,9.97,36.64-.04-.09.75-36.58-.03.03,25.76c0,2.01,1.39,3.48,3.08,3.98-.18.48-.77.42-1.2.41-1.75-.99-2.75-2.63-2.75-4.77l.02-25.38h-16.29s0-.73,0-.73l16.27.04.03-9.24c0-.96-.28-1.78-.83-2.55l-3.39-5.2c-.19-.29-.14-.76-.52-.92.42-.22.73-.17,1.19-.19h0Z"/>
  <path class="cls-2" d="M66.88,45.19c.94.02,1.19.93,1.13,1.48-.08.64-.59,1.15-1.41,1.13l-26.72-.53c-.87-.02-1.52-.42-1.6-1.2-.07-.7.5-1.46,1.39-1.44l27.21.55h0Z"/>
  <path class="cls-10" d="M56.69,59.42l-6.22-.03c-1.22-.26-1.97-1.23-1.94-2.37.03-1.14.96-2.17,2.27-2.17h5.63c1.18,0,1.97,1.03,2.07,2.04.12,1.16-.52,2.19-1.81,2.53h0Z"/>
  <path class="cls-6" d="M27.8,62.56l-5.87-.65c-.22-.03-.31-.23-.27-.38.03-.13.14-.26.4-.23l5.43.59c.18.02.28.08.34.13.11.09.12.41-.03.55h0Z"/>
  <path class="cls-6" d="M27.74,60.01l-5.72-.52c-.25-.02-.29-.22-.29-.33.02-.23.21-.32.5-.29l5.25.49.34.11c.14.04.14.56-.08.54h0Z"/>
  <path class="cls-6" d="M27.81,65.25l-5.73-.73c-.22-.03-.35-.17-.39-.28-.03-.1.07-.4.22-.38l5.6.71c.17.02.27.12.35.1.08-.02.07.6-.05.58h0Z"/>
  <path class="cls-6" d="M27.57,67.97l-5.76-.84c-.11-.02-.13-.4-.05-.46.1-.08.28-.11.47-.09l5.45.74c.17.02.2.19.22.26.04.12-.03.43-.33.39h0Z"/>
  <path class="cls-6" d="M27.76,57.53l-5.95-.52c-.1,0-.14-.44-.05-.5.1-.06.29-.11.49-.09l5.6.55c.16.02.14.58-.09.56h0Z"/>
</svg>