<?xml version="1.0" encoding="UTF-8"?>
<svg id="Camada_2" data-name="Camada 2" xmlns="http://www.w3.org/2000/svg" xmlns:xlink="http://www.w3.org/1999/xlink" viewBox="0 0 419.26 355">
  <defs>
    <style>
      .cls-1 {
        fill: url(#Gradiente_sem_nome_49-5);
      }

      .cls-2 {
        fill: url(#Gradiente_sem_nome_49-7);
      }

      .cls-3 {
        fill: url(#Gradiente_sem_nome_49-2);
      }

      .cls-4 {
        fill: url(#Gradiente_sem_nome_49-6);
      }

      .cls-5 {
        fill: url(#Gradiente_sem_nome_49-3);
      }

      .cls-6 {
        fill: url(#Gradiente_sem_nome_49);
      }

      .cls-7 {
        fill: url(#Gradiente_sem_nome_49-4);
      }
    </style>
    <linearGradient id="Gradiente_sem_nome_49" data-name="Gradiente sem nome 49" x1="54.91" y1="285.3" x2="276.81" y2="292.44" gradientUnits="userSpaceOnUse">
      <stop offset="0" stop-color="#312783"/>
      <stop offset="1" stop-color="#00a19a"/>
    </linearGradient>
    <linearGradient id="Gradiente_sem_nome_49-2" data-name="Gradiente sem nome 49" x1="54.88" y1="286.19" x2="276.78" y2="293.34" xlink:href="#Gradiente_sem_nome_49"/>
    <linearGradient id="Gradiente_sem_nome_49-3" data-name="Gradiente sem nome 49" x1="58.48" y1="174.3" x2="280.39" y2="181.45" xlink:href="#Gradiente_sem_nome_49"/>
    <linearGradient id="Gradiente_sem_nome_49-4" data-name="Gradiente sem nome 49" x1="56.68" y1="230.19" x2="278.59" y2="237.33" xlink:href="#Gradiente_sem_nome_49"/>
    <linearGradient id="Gradiente_sem_nome_49-5" data-name="Gradiente sem nome 49" x1="57.03" y1="219.53" x2="278.93" y2="226.67" xlink:href="#Gradiente_sem_nome_49"/>
    <linearGradient id="Gradiente_sem_nome_49-6" data-name="Gradiente sem nome 49" x1="59.27" y1="149.67" x2="281.18" y2="156.81" xlink:href="#Gradiente_sem_nome_49"/>
    <linearGradient id="Gradiente_sem_nome_49-7" data-name="Gradiente sem nome 49" x1="58.69" y1="167.74" x2="280.6" y2="174.88" xlink:href="#Gradiente_sem_nome_49"/>
  </defs>
  <g id="Camada_1-2" data-name="Camada 1">
    <g>
      <path class="cls-6" d="M390.55,301.89c-1.55,5.71-5.62,9.27-10.04,9.94-5.76.88-10.67-.87-13.64-6.17-3.26-5.8-3.44-13.28-.43-19.34,2-4.02,6.03-6.54,9.64-6.89,4.21-.41,9.23.64,11.77,4.22,3.65,5.12,4.37,12.05,2.69,18.24ZM382.62,289.13c-1.05-2.39-3.72-3.41-5.67-3.08-4.74.81-6.37,9.76-3.69,16.16.92,2.21,2.69,3.27,4.6,3.22,5.93-.14,7.34-10.44,4.77-16.3Z"/>
      <path class="cls-3" d="M348.35,304.87l-.38,6.75-7.07.12-.64-6.36-15.01-.69c-2.08-1.44-.43-6.23,1.19-8.3l12.81-16.35c1.38-1.76,5.33-.66,7.19-.12l-12.47,17.33c1.6,1.71,3.88,1.78,5.65,1.04,1.39-.58,1.32-3.38,1.85-4.93,1.21-1.64,4.64-1.23,6.53-.69.09,1.54-.6,4.7.93,5.24l3.89,1.35c.89.31.72,3.03.33,4.27-.32.99-1.94,1.94-4.79,1.33Z"/>
      <g>
        <path class="cls-5" d="M246.28,285.62c-8.15,4.47-16.79,5.66-25.79,6.43l-12.05,1.03c-4.07.35-8.63-.67-12.25,2.08-1.35,1.03.15,3.9,1.89,4.42,29.01,8.67,58.7,1.26,82.24-17.46l11.72-9.32c11.29-8.97,22.97-23.89,38.83-17.04,1.59.69,2.6,2.01,2.92,3.4.25,1.09-.5,2.77-1.52,4l-15.92,19.17-24.77,25.05c-6.07,6.13-13.65,9.74-21.14,13.87-26.1,14.38-45.99,20.48-76.02,18.07-30.82-2.48-63.39-6.97-84.43-30.55-11.48-12.45-18.05-27.69-18.83-45.45l-56.17-.06,65.08,70.77c5.33-3.63,11.62-1.58,15.19,2.95s2.78,11.41-1.34,14.96c-4.41,3.8-10.78,4.13-15.24.5-4.45-3.62-5.61-10.04-2.02-15.47l-71.43-78.21,57.19-.25c2.83-.01,5.72,1.57,8.32.07l-.41-14.74-67.69.28c-1.81,7.58-8.68,10.59-15.51,8.11-6.37-2.32-9.36-10.53-5.25-16.48,3.05-4.41,6.88-6.17,11.78-5.2,4.38.87,6.95,4.15,8.98,8.78l67.69.16.02-15.22-63.57-.06.09-68.31,60.87-50.11c.95-1.17,2.25-1.16,3.06-1.15.74,0,2.28,2.13,1.6,2.71l-21.1,17.92-39.8,32.47v62.41s58.88.07,58.88.07l.15-45.97-13.22,10.87c-5.11,4.43-12.7,4.86-17.35.32-4.43-4.34-5.68-13.09-.02-17.78l55.21-45.77-.59-55.34,28.61.08.47,32.1,56.95-46.99c4.62-3.81,11.14-5.29,16.08-1.29l49.85,40.36,17.17-16.78-23.54-19.38-42.63-34.41c-4.87,2.97-10.48,2.71-15.36.04l-20.92,16.02-19.96,16.06c-.95.76-2.18,1.01-2.93.71-.66-.26-1.27-2.73-.41-3.43l40.9-33.55c-1.09-5.75-.63-10.9,4.28-14.09,3.82-2.48,8.55-2.9,13.16.07,4.3,2.76,5.4,8.39,4.23,13.67,6.31,7.77,15.17,13.14,23.08,19.64l43.48,35.75,9.5-9.49c1.6-5.75.52-12.36.47-18.49-6.27-1.6-9.36-7.06-8.45-12.86.84-5.38,5.63-9.31,11.24-9.39,5.93-.08,10.03,3.67,11.27,9.47,1.26,5.89-2.41,11.28-8.52,13.4l-.73,19.49c-.9,3.53-5.68,6.12-8.1,8.5l-16.21,15.97c-2.18,2.14-5.6,3.11-6.48,6.79l12.31,10.11,65.62-65.09c-5.04-9.28-1.73-19.41,6.93-23.79s19.37-.73,23.12,9.01c2.6,6.74.87,13.77-3.76,18.36-5.07,5.04-12.72,6.09-19.53,2.77-2.41-1.17-3.97-1.16-6.18,1.03l-52.57,52.12c-3.16,3.13-6.68,5.36-8.84,9.08l12.72,11.29,36.86-36.71,16.12-.52c2.41-5.12,6.1-8.63,11.02-8.76,5.42-.14,10.04,3.07,11.88,8.74,2.02,6.25-2.27,12.81-8.12,14.07-6.63,1.43-12.23-1.7-14.36-8.66l-13.69.07-17.27,17.28,21.6,17.96c2.35,1.95,4.61,0,6.2-1.6l13.42-13.58,31.47-.47c2.45-4.79,6.65-9.15,12.65-8.3,5.54.79,10.18,5.44,10.55,11.09s-4.13,10.76-9.76,11.77c-6.24,1.12-10.86-2.74-13.24-8.17l-30.02-.4-14.1,14.81,17.99,14.66,26.93,22.71c5-4.05,11.09-3.43,15.3.49s4.71,10.23,1.53,14.53c-3.77,5.1-9.9,6.21-16.03,2.95l-32.23,32.14-.03,53.77c0,1.07-2.06,1.26-2.59.94s-1.46-.76-1.46-2.06l-.09-43.92-32.7-.42-.47,19.76c-11.43-2.35-16.1,2.55-25.56,5.92l-.2-95.93-10.24-9.16-82.68-67.86-76.34,62.44-16.83,13.73.46,112.88c.03,8.54,8.5,16.16,15.84,14.09,11.12-3.15,19.61-17.29,46.76-17.08l21.96,2.88c11.21,1.47,21.74,2.81,33.04.82l12.14-1.07c2.63-.23,7.62-.29,8.71,3.08,2.24,6.92-2.58,13.76-9.06,17.31ZM371.34,30.88c0-4.36-3.54-7.9-7.9-7.9s-7.9,3.54-7.9,7.9,3.54,7.9,7.9,7.9,7.9-3.54,7.9-7.9ZM330.34,140.98l13.6-13.54-13.31-11.24-9.86-9.02-9.97,9.72-4.78,5.65,19.17,16.23c1.08.92,2.98,4.36,5.16,2.19ZM328.41,219.61l32.92-.2c.08-2.01-.49-5.03.76-6.32l15.35-15.73c5.73-5.87,12.62-10.74,16.77-18.04-.34-3.07-1.57-7.35.04-10.66l-45.65-37.88-15.51,15.38,12.64,9.85,13.55,11.38c4.48,3.76,4.98,9.64,2.29,14.6-2.07,3.81-6.59,7.62-11.72,6.83-8.97-1.39-14.03-10.68-21.61-13.79l.17,44.59Z"/>
        <path class="cls-7" d="M235.58,213c-9.94,2.83-17.15,11.62-17.24,21.19l-.21,22.12c-6.89.11-13.29-1.12-20.48-2.41l.33-23.2c1.82-15.62,10.98-29.39,25.55-36.04,10.94,9.04,25.91,9.74,35.99-.38,14,6.87,24.18,20.19,25.6,36.05l.34,33.65c-6.42,5.68-11.64,10.97-19.69,15.36,2.09-6.18-.55-11.49-.66-17.22l-.55-27.83c-.29-14.44-14.47-25.43-28.99-21.28Z"/>
        <path class="cls-1" d="M199.16,204.77c-8.89-7.7-23.95-7.88-32.58.72-3.61,3.6-7.09,7.61-7.91,13.02-1.45,9.6-1.08,19.07-.2,28.77.25,2.76-.23,5.35-1.13,7.65-8.44,2.06-14.52,6.52-22.59,11.6l.24-46.2c.09-18.13,14.02-34.21,29.99-41.11,11.01,7.45,24.96,7.23,35.72.45,5.13,1.02,11.17,5.49,15.01,9.64-6.93,4.29-12.07,8.47-16.56,15.46Z"/>
        <ellipse class="cls-4" cx="182.97" cy="153.65" rx="22.92" ry="22.91"/>
        <ellipse class="cls-2" cx="241.64" cy="173.63" rx="20.07" ry="20.05"/>
      </g>
    </g>
  </g>
</svg>