<?xml version="1.0" encoding="UTF-8"?>
<svg id="Camada_1" data-name="Camada 1" xmlns="http://www.w3.org/2000/svg" viewBox="0 0 92.44 92.44">
  <defs>
    <style>
      .cls-1 {
        fill: #edf5fb;
      }

      .cls-2 {
        fill: #4486ff;
      }

      .cls-3 {
        fill: none;
      }

      .cls-4 {
        fill: #f1f8fc;
      }

      .cls-5 {
        fill: #7c99c3;
      }

      .cls-6 {
        fill: #fbfcfc;
      }

      .cls-7 {
        fill: #d1e5f8;
      }

      .cls-8 {
        fill: #fcfcfd;
      }

      .cls-9 {
        fill: #11d3c9;
      }

      .cls-10 {
        fill: #fbfbfc;
      }

      .cls-11 {
        fill: #26406a;
      }
    </style>
  </defs>
  <rect class="cls-3" width="92.44" height="92.44"/>
  <path class="cls-7" d="M16.62,76.25c.9,1.44,2.23,2.22,3.91,2.7l10.77,3.08c2.34.67,4.52.73,6.99.43l28.18-3.38c1.98-.24,3.62-.92,4.74-2.52,1.45.6,3.33,1.19,3.13,2.29-.16.87-1.98,1.59-3.35,1.83-11.22,1.93-22.4,3.44-33.72,4.67-2.52.27-4.78.16-7.15-.59l-11.71-3.71c-1.91-.61-4.86-1.46-5.07-2.6-.19-1.02,1.71-1.88,3.27-2.2h0Z"/>
  <path class="cls-9" d="M54.99,33.7l-.74.83c-.07.08-.11.27-.19.33-.85.66-1.5,1.69-2,2.61-.29.33-.77.69-1.11,1.11l-1.41,1.73c-.25.3-.75.69-1.13,1.08-.73-.28-1.1-.93-1.55-1.44l-1.72-1.96c-.41-.47-.74-.94-1.17-1.39-.43-.45-.78-1.19-1.41-1.49-.21-.68-.91-1.26-1.37-1.79l-.93-1.05c-.22-.25-.39-.28-.6-.3.03-.24-.02-.46-.17-.66l-2.52-3.33c-4.67-6.69-2.68-15.86,4.48-19.79,5.62-3.09,12.54-1.96,16.81,2.7,4.3,4.69,4.74,11.77,1.04,17.1l-4.33,5.69h0ZM40.9,26.29c2.23,2.73,6.23,3.19,8.72.77l5.23-5.07c2.24-2.17,2.31-5.66.44-7.94-1.86-2.27-5.42-3.17-7.87-1.27l-6.25,5.87c-2.1,1.97-2.11,5.38-.27,7.63h0Z"/>
  <path d="M42.58,35.12c.22.75.49,1.46,1.41,1.49.43.44.76.92,1.17,1.39-1.46.11-3.25-.31-3.61-1.87l-.54-2.38c.11-.12.16-.26.2-.42.47.53,1.17,1.1,1.37,1.79h0Z"/>
  <path class="cls-1" d="M54.07,34.87l.58,1.62c.09.25.05.53-.05.72-.1.17-.4.35-.72.34l-1.82-.07c.51-.92,1.15-1.95,2-2.61Z"/>
  <path class="cls-7" d="M43.99,36.61c-.91-.03-1.18-.74-1.41-1.49.63.3.98,1.05,1.41,1.49Z"/>
  <path class="cls-10" d="M40.9,26.29c-1.85-2.26-1.83-5.67.27-7.63l6.25-5.87c2.45-1.9,6-1,7.87,1.27,1.87,2.28,1.79,5.77-.44,7.94l-5.23,5.07c-2.49,2.41-6.49,1.96-8.72-.77h0ZM51.5,22.15l2.11-2.2c.95-1.52.85-3.4-.28-4.7-1.09-1.25-3.08-1.7-4.56-.74-.99.64-1.69,1.54-2.54,2.43l5.27,5.2h0ZM49.69,23.73l-5.13-5.19-1.81,1.68c-1.28,1.48-1.15,3.65.1,4.95,1.33,1.39,3.55,1.66,5.04.39.66-.56,1.31-1.07,1.8-1.84h0Z"/>
  <path class="cls-2" d="M51.5,22.15l-5.27-5.2c.85-.89,1.55-1.79,2.54-2.43,1.48-.97,3.47-.51,4.57.74,1.13,1.3,1.23,3.18.28,4.7l-2.11,2.2h0Z"/>
  <path class="cls-2" d="M49.69,23.73c-.48.76-1.14,1.28-1.8,1.84-1.49,1.27-3.71,1-5.04-.39-1.24-1.3-1.37-3.47-.1-4.95l1.81-1.68,5.13,5.19h0Z"/>
  <path d="M39.68,31.99c.21.02.39.05.6.3l.93,1.05c-.04.15-.1.29-.2.42-.25-.26-.62-.35-1.05-.39l-8.83-.94c-.48-.05-.88.02-1.24.04-.45.02-.77-.03-1.19.19-.55.28-1.04.6-1.58,1.08l-8.83,7.95c-.82.74-1.15,1.87-1.15,2.95v5.89s-.02.74-.02.74l.02,22.44c0,1.87,1.31,3.36,3.03,3.85l12.78,3.64c1.09.31,2.17.19,3.19.21.44,0,1.02.07,1.2-.41.75.2,1.45.17,2.34.06l27.72-3.37c2.3-.28,3.49-2.43,3.48-4.54l-.07-21.86.09-.75-.07-5.61c-.02-1.39-1.12-2.13-1.99-2.89l-6.13-5.4c-.53-.47-1.29-.86-2.01-.93l-5.2-.48c-.51-.05-.97-.2-1.27-.68l.74-.83,6.13.85c1.45.19,2.61,1.19,3.67,2.15l6.16,5.57c.81.73,1.19,2,1.19,3.06l-.02,8.87c-.36.22-.36.95,0,1.17v3.9c-.25.05-.24.29-.25.49,0,.2,0,.44.26.49v13.69c0,.95-.44,1.93-.91,2.61-1.12,1.6-2.76,2.29-4.74,2.52l-28.18,3.38c-2.47.3-4.65.23-6.99-.43l-10.77-3.08c-1.68-.48-3.01-1.26-3.91-2.7-.57-.91-.7-1.93-.7-3.14v-28.43c0-1.71.57-3.06,1.81-4.16l8.55-7.62c1.45-1.29,2.99-1.9,4.97-1.71l8.43.81h0Z"/>
  <path class="cls-11" d="M72.12,55.38c-.35-.23-.35-.95,0-1.17v1.17Z"/>
  <path class="cls-11" d="M72.14,60.25c-.27-.05-.26-.28-.26-.49s0-.44.25-.49l.02.98Z"/>
  <path class="cls-10" d="M46.87,39.96c.45.51.81,1.16,1.55,1.44.38-.39.88-.78,1.13-1.08l17.84,1.96c.58.06,1.02.18,1.48-.25.86.76,1.97,1.51,1.99,2.89l.07,5.61-36.64.04-.03-9.97c0-.72-.39-1.35-.74-1.92l-.75-1.24c.64-.12,1.11.15,1.65.51,1.05.72,2.28,1.02,3.55,1.18l7.13.9c.65.08,1.23.16,1.78-.08h0ZM66.88,45.19l-27.21-.55c-.89-.02-1.46.74-1.39,1.44.08.78.73,1.18,1.6,1.2l26.72.53c.82.02,1.33-.49,1.41-1.13.07-.55-.18-1.46-1.13-1.48h0Z"/>
  <path class="cls-1" d="M68.86,42.02c-.45.43-.89.32-1.48.25l-17.84-1.96,1.41-1.73,2.97.19c1.08.06,2.12-.8,2.05-1.88l-.45-1.68,5.2.48c.72.07,1.48.46,2.01.93l6.13,5.4h0Z"/>
  <path class="cls-4" d="M41.01,33.75l.54,2.38c.35,1.56,2.14,1.98,3.61,1.87l1.72,1.96c-.55.23-1.14.16-1.78.08l-7.13-.9c-1.27-.16-2.5-.46-3.55-1.18-.54-.37-1.01-.64-1.65-.51l-2.35-3.48c-.32-.47-.58-.92-.51-1.5.36-.02.75-.09,1.24-.04l8.83.94c.43.05.81.14,1.05.39h0Z"/>
  <path d="M55.52,35.21l.45,1.68c.07,1.08-.97,1.94-2.05,1.88l-2.97-.19c.34-.42.82-.78,1.11-1.11l1.82.07c.32,0,.62-.17.72-.34.11-.18.14-.47.05-.72l-.58-1.62c.08-.06.12-.26.19-.33.3.47.75.63,1.27.68h0Z"/>
  <path class="cls-6" d="M70.83,51.28l.07,21.86c0,2.11-1.18,4.26-3.48,4.54l-27.72,3.37c-.89.11-1.59.14-2.34-.06-1.69-.5-3.07-1.97-3.08-3.98l-.03-25.76,36.58.03h0ZM56.69,59.42c1.3-.34,1.93-1.37,1.81-2.53-.1-1.01-.89-2.03-2.07-2.03h-5.63c-1.31,0-2.24.99-2.27,2.16-.03,1.18.73,2.1,1.94,2.37l6.22.03h0Z"/>
  <path class="cls-8" d="M36.15,81.39c-1.02-.02-2.1.11-3.19-.21l-12.78-3.64c-1.72-.49-3.03-1.98-3.03-3.85l-.02-22.44h16.29s-.02,25.37-.02,25.37c0,2.14,1,3.78,2.75,4.77h0ZM27.76,57.53c.22.02.25-.55.09-.56l-5.6-.55c-.2-.02-.4.03-.49.09-.08.05-.05.49.05.5l5.95.52h0ZM27.74,60.01c.22.02.22-.49.08-.54l-.34-.11-5.25-.49c-.3-.03-.48.06-.5.29,0,.11.04.3.29.33l5.72.52h0ZM27.8,62.56c.14-.14.14-.46.03-.55-.06-.05-.17-.11-.34-.13l-5.43-.59c-.26-.03-.37.1-.4.23-.04.15.05.36.27.38l5.87.65h0ZM27.81,65.25c.13.02.14-.6.05-.58s-.17-.08-.35-.1l-5.6-.71c-.15-.02-.26.28-.22.38.04.11.17.25.39.28l5.73.73h0ZM27.57,67.97c.3.04.37-.27.33-.39-.02-.07-.05-.23-.22-.26l-5.45-.74c-.2-.03-.37,0-.47.09-.08.06-.05.44.05.46l5.76.84h0Z"/>
  <path class="cls-8" d="M17.13,50.52v-5.89c.01-1.08.35-2.22,1.17-2.95l8.83-7.95c.54-.48,1.03-.8,1.58-1.08.38.17.33.63.52.92l3.39,5.2c.55.77.83,1.59.83,2.55l-.03,9.24-16.27-.04h0Z"/>
  <path d="M29.89,32.46c-.06.58.2,1.03.51,1.5l2.35,3.48.75,1.24c.35.57.74,1.2.74,1.92l.03,9.97,36.64-.04-.09.75-36.58-.03.03,25.76c0,2.01,1.39,3.48,3.08,3.98-.18.48-.77.42-1.2.41-1.75-.99-2.75-2.63-2.75-4.77l.02-25.38h-16.29s0-.73,0-.73l16.27.04.03-9.24c0-.96-.28-1.78-.83-2.55l-3.39-5.2c-.19-.29-.14-.76-.52-.92.42-.22.73-.17,1.19-.19h0Z"/>
  <path class="cls-2" d="M66.88,45.19c.94.02,1.19.93,1.13,1.48-.08.64-.59,1.15-1.41,1.13l-26.72-.53c-.87-.02-1.52-.42-1.6-1.2-.07-.7.5-1.46,1.39-1.44l27.21.55h0Z"/>
  <path class="cls-9" d="M56.69,59.42l-6.22-.03c-1.22-.26-1.97-1.23-1.94-2.37.03-1.14.96-2.17,2.27-2.17h5.63c1.18,0,1.97,1.03,2.07,2.04.12,1.16-.52,2.19-1.81,2.53h0Z"/>
  <path class="cls-5" d="M27.8,62.56l-5.87-.65c-.22-.03-.31-.23-.27-.38.03-.13.14-.26.4-.23l5.43.59c.18.02.28.08.34.13.11.09.12.41-.03.55h0Z"/>
  <path class="cls-5" d="M27.74,60.01l-5.72-.52c-.25-.02-.29-.22-.29-.33.02-.23.21-.32.5-.29l5.25.49.34.11c.14.04.14.56-.08.54h0Z"/>
  <path class="cls-5" d="M27.81,65.25l-5.73-.73c-.22-.03-.35-.17-.39-.28-.03-.1.07-.4.22-.38l5.6.71c.17.02.27.12.35.1.08-.02.07.6-.05.58h0Z"/>
  <path class="cls-5" d="M27.57,67.97l-5.76-.84c-.11-.02-.13-.4-.05-.46.1-.08.28-.11.47-.09l5.45.74c.17.02.2.19.22.26.04.12-.03.43-.33.39h0Z"/>
  <path class="cls-5" d="M27.76,57.53l-5.95-.52c-.1,0-.14-.44-.05-.5.1-.06.29-.11.49-.09l5.6.55c.16.02.14.58-.09.56h0Z"/>
</svg>