<?xml version="1.0" encoding="UTF-8"?>
<svg id="Camada_1" data-name="Camada 1" xmlns="http://www.w3.org/2000/svg" xmlns:xlink="http://www.w3.org/1999/xlink" viewBox="0 0 178 79">
  <defs>
    <style>
      .cls-1 {
        fill: #edf5fb;
      }

      .cls-2 {
        fill: #4486ff;
      }

      .cls-3 {
        fill: none;
      }

      .cls-4 {
        fill: #f1f8fc;
      }

      .cls-5 {
        fill: #7c99c3;
      }

      .cls-6 {
        fill: #fbfcfc;
      }

      .cls-7 {
        fill: #d1e5f8;
      }

      .cls-8 {
        fill: #fcfcfd;
      }

      .cls-9 {
        fill: #11d3c9;
      }

      .cls-10 {
        fill: #fbfbfc;
      }

      .cls-11 {
        clip-path: url(#clippath);
      }

      .cls-12 {
        fill: #26406a;
      }
    </style>
    <clipPath id="clippath">
      <rect class="cls-3" x="0" width="178" height="79"/>
    </clipPath>
  </defs>
  <g class="cls-11">
    <g>
      <path class="cls-7" d="M3.29,69.77c.9,1.44,2.23,2.22,3.91,2.7l10.77,3.08c2.34.67,4.52.73,6.99.43l28.18-3.38c1.98-.24,3.62-.92,4.74-2.52,1.45.6,3.33,1.19,3.13,2.29-.16.87-1.98,1.59-3.35,1.83-11.22,1.93-22.4,3.44-33.72,4.67-2.52.27-4.78.16-7.15-.59l-11.71-3.71c-1.91-.61-4.86-1.46-5.07-2.6-.19-1.02,1.71-1.88,3.27-2.2h0Z"/>
      <path class="cls-9" d="M41.67,27.23l-.74.83c-.07.08-.11.27-.19.33-.85.66-1.5,1.69-2,2.61-.29.33-.77.69-1.11,1.11l-1.41,1.73c-.25.3-.75.69-1.13,1.08-.73-.28-1.1-.93-1.55-1.44l-1.72-1.96c-.41-.47-.74-.94-1.17-1.39-.43-.45-.78-1.19-1.41-1.49-.21-.68-.91-1.26-1.37-1.79l-.93-1.05c-.22-.25-.39-.28-.6-.3.03-.24-.02-.46-.17-.66l-2.52-3.33c-4.67-6.69-2.68-15.86,4.48-19.79,5.62-3.09,12.54-1.96,16.81,2.7,4.3,4.69,4.74,11.77,1.04,17.1l-4.33,5.69h0ZM27.57,19.81c2.23,2.73,6.23,3.19,8.72.77l5.23-5.07c2.24-2.17,2.31-5.66.44-7.94-1.86-2.27-5.42-3.17-7.87-1.27l-6.25,5.87c-2.1,1.97-2.11,5.38-.27,7.63h0Z"/>
      <path d="M29.25,28.64c.22.75.49,1.46,1.41,1.49.43.44.76.92,1.17,1.39-1.46.11-3.25-.31-3.61-1.87l-.54-2.38c.11-.12.16-.26.2-.42.47.53,1.17,1.1,1.37,1.79h0Z"/>
      <path class="cls-1" d="M40.74,28.39l.58,1.62c.09.25.05.53-.05.72-.1.17-.4.35-.72.34l-1.82-.07c.51-.92,1.15-1.95,2-2.61Z"/>
      <path class="cls-7" d="M30.66,30.14c-.91-.03-1.18-.74-1.41-1.49.63.3.98,1.05,1.41,1.49Z"/>
      <path class="cls-10" d="M27.57,19.81c-1.85-2.26-1.83-5.67.27-7.63l6.25-5.87c2.45-1.9,6-1,7.87,1.27,1.87,2.28,1.79,5.77-.44,7.94l-5.23,5.07c-2.49,2.41-6.49,1.96-8.72-.77h0ZM38.17,15.67l2.11-2.2c.95-1.52.85-3.4-.28-4.7-1.09-1.25-3.08-1.7-4.56-.74-.99.64-1.69,1.54-2.54,2.43l5.27,5.2h0ZM36.36,17.26l-5.13-5.19-1.81,1.68c-1.28,1.48-1.15,3.65.1,4.95,1.33,1.39,3.55,1.66,5.04.39.66-.56,1.31-1.07,1.8-1.84h0Z"/>
      <path class="cls-2" d="M38.17,15.67l-5.27-5.2c.85-.89,1.55-1.79,2.54-2.43,1.48-.97,3.47-.51,4.57.74,1.13,1.3,1.23,3.18.28,4.7l-2.11,2.2h0Z"/>
      <path class="cls-2" d="M36.36,17.26c-.48.76-1.14,1.28-1.8,1.84-1.49,1.27-3.71,1-5.04-.39-1.24-1.3-1.37-3.47-.1-4.95l1.81-1.68,5.13,5.19h0Z"/>
      <path d="M26.35,25.51c.21.02.39.05.6.3l.93,1.05c-.04.15-.1.29-.2.42-.25-.26-.62-.35-1.05-.39l-8.83-.94c-.48-.05-.88.02-1.24.04-.45.02-.77-.03-1.19.19-.55.28-1.04.6-1.58,1.08l-8.83,7.95c-.82.74-1.15,1.87-1.15,2.95v5.89s-.02.74-.02.74l.02,22.44c0,1.87,1.31,3.36,3.03,3.85l12.78,3.64c1.09.31,2.17.19,3.19.21.44,0,1.02.07,1.2-.41.75.2,1.45.17,2.34.06l27.72-3.37c2.3-.28,3.49-2.43,3.48-4.54l-.07-21.86.09-.75-.07-5.61c-.02-1.39-1.12-2.13-1.99-2.89l-6.13-5.4c-.53-.47-1.29-.86-2.01-.93l-5.2-.48c-.51-.05-.97-.2-1.27-.68l.74-.83,6.13.85c1.45.19,2.61,1.19,3.67,2.15l6.16,5.57c.81.73,1.19,2,1.19,3.06l-.02,8.87c-.36.22-.36.95,0,1.17v3.9c-.25.05-.24.29-.25.49,0,.2,0,.44.26.49v13.69c0,.95-.44,1.93-.91,2.61-1.12,1.6-2.76,2.29-4.74,2.52l-28.18,3.38c-2.47.3-4.65.23-6.99-.43l-10.77-3.08c-1.68-.48-3.01-1.26-3.91-2.7-.57-.91-.7-1.93-.7-3.14v-28.43c0-1.71.57-3.06,1.81-4.16l8.55-7.62c1.45-1.29,2.99-1.9,4.97-1.71l8.43.81h0Z"/>
      <path class="cls-12" d="M58.79,48.9c-.35-.23-.35-.95,0-1.17v1.17Z"/>
      <path class="cls-12" d="M58.81,53.78c-.27-.05-.26-.28-.26-.49s0-.44.25-.49l.02.98Z"/>
      <path class="cls-10" d="M33.54,33.48c.45.51.81,1.16,1.55,1.44.38-.39.88-.78,1.13-1.08l17.84,1.96c.58.06,1.02.18,1.48-.25.86.76,1.97,1.51,1.99,2.89l.07,5.61-36.64.04-.03-9.97c0-.72-.39-1.35-.74-1.92l-.75-1.24c.64-.12,1.11.15,1.65.51,1.05.72,2.28,1.02,3.55,1.18l7.13.9c.65.08,1.23.16,1.78-.08h0ZM53.55,38.72l-27.21-.55c-.89-.02-1.46.74-1.39,1.44.08.78.73,1.18,1.6,1.2l26.72.53c.82.02,1.33-.49,1.41-1.13.07-.55-.18-1.46-1.13-1.48h0Z"/>
      <path class="cls-1" d="M55.53,35.54c-.45.43-.89.32-1.48.25l-17.84-1.96,1.41-1.73,2.97.19c1.08.06,2.12-.8,2.05-1.88l-.45-1.68,5.2.48c.72.07,1.48.46,2.01.93l6.13,5.4h0Z"/>
      <path class="cls-4" d="M27.68,27.27l.54,2.38c.35,1.56,2.14,1.98,3.61,1.87l1.72,1.96c-.55.23-1.14.16-1.78.08l-7.13-.9c-1.27-.16-2.5-.46-3.55-1.18-.54-.37-1.01-.64-1.65-.51l-2.35-3.48c-.32-.47-.58-.92-.51-1.5.36-.02.75-.09,1.24-.04l8.83.94c.43.05.81.14,1.05.39h0Z"/>
      <path d="M42.19,28.73l.45,1.68c.07,1.08-.97,1.94-2.05,1.88l-2.97-.19c.34-.42.82-.78,1.11-1.11l1.82.07c.32,0,.62-.17.72-.34.11-.18.14-.47.05-.72l-.58-1.62c.08-.06.12-.26.19-.33.3.47.75.63,1.27.68h0Z"/>
      <path class="cls-6" d="M57.5,44.8l.07,21.86c0,2.11-1.18,4.26-3.48,4.54l-27.72,3.37c-.89.11-1.59.14-2.34-.06-1.69-.5-3.07-1.97-3.08-3.98l-.03-25.76,36.58.03h0ZM43.36,52.95c1.3-.34,1.93-1.37,1.81-2.53-.1-1.01-.89-2.03-2.07-2.03h-5.63c-1.31,0-2.24.99-2.27,2.16-.03,1.18.73,2.1,1.94,2.37l6.22.03h0Z"/>
      <path class="cls-8" d="M22.82,74.92c-1.02-.02-2.1.11-3.19-.21l-12.78-3.64c-1.72-.49-3.03-1.98-3.03-3.85l-.02-22.44h16.29s-.02,25.37-.02,25.37c0,2.14,1,3.78,2.75,4.77h0ZM14.44,51.06c.22.02.25-.55.09-.56l-5.6-.55c-.2-.02-.4.03-.49.09-.08.05-.05.49.05.5l5.95.52h0ZM14.41,53.53c.22.02.22-.49.08-.54l-.34-.11-5.25-.49c-.3-.03-.48.06-.5.29,0,.11.04.3.29.33l5.72.52h0ZM14.47,56.08c.14-.14.14-.46.03-.55-.06-.05-.17-.11-.34-.13l-5.43-.59c-.26-.03-.37.1-.4.23-.04.15.05.36.27.38l5.87.65h0ZM14.48,58.77c.13.02.14-.6.05-.58s-.17-.08-.35-.1l-5.6-.71c-.15-.02-.26.28-.22.38.04.11.17.25.39.28l5.73.73h0ZM14.24,61.49c.3.04.37-.27.33-.39-.02-.07-.05-.23-.22-.26l-5.45-.74c-.2-.03-.37,0-.47.09-.08.06-.05.44.05.46l5.76.84h0Z"/>
      <path class="cls-8" d="M3.8,44.04v-5.89c.01-1.08.35-2.22,1.17-2.95l8.83-7.95c.54-.48,1.03-.8,1.58-1.08.38.17.33.63.52.92l3.39,5.2c.55.77.83,1.59.83,2.55l-.03,9.24-16.27-.04h0Z"/>
      <path d="M16.56,25.98c-.06.58.2,1.03.51,1.5l2.35,3.48.75,1.24c.35.57.74,1.2.74,1.92l.03,9.97,36.64-.04-.09.75-36.58-.03.03,25.76c0,2.01,1.39,3.48,3.08,3.98-.18.48-.77.42-1.2.41-1.75-.99-2.75-2.63-2.75-4.77l.02-25.38H3.8s0-.73,0-.73l16.27.04.03-9.24c0-.96-.28-1.78-.83-2.55l-3.39-5.2c-.19-.29-.14-.76-.52-.92.42-.22.73-.17,1.19-.19h0Z"/>
      <path class="cls-2" d="M53.55,38.72c.94.02,1.19.93,1.13,1.48-.08.64-.59,1.15-1.41,1.13l-26.72-.53c-.87-.02-1.52-.42-1.6-1.2-.07-.7.5-1.46,1.39-1.44l27.21.55h0Z"/>
      <path class="cls-9" d="M43.36,52.95l-6.22-.03c-1.22-.26-1.97-1.23-1.94-2.37.03-1.14.96-2.17,2.27-2.17h5.63c1.18,0,1.97,1.03,2.07,2.04.12,1.16-.52,2.19-1.81,2.53h0Z"/>
      <path class="cls-5" d="M14.47,56.08l-5.87-.65c-.22-.03-.31-.23-.27-.38.03-.13.14-.26.4-.23l5.43.59c.18.02.28.08.34.13.11.09.12.41-.03.55h0Z"/>
      <path class="cls-5" d="M14.41,53.53l-5.72-.52c-.25-.02-.29-.22-.29-.33.02-.23.21-.32.5-.29l5.25.49.34.11c.14.04.14.56-.08.54h0Z"/>
      <path class="cls-5" d="M14.48,58.77l-5.73-.73c-.22-.03-.35-.17-.39-.28-.03-.1.07-.4.22-.38l5.6.71c.17.02.27.12.35.1.08-.02.07.6-.05.58h0Z"/>
      <path class="cls-5" d="M14.24,61.49l-5.76-.84c-.11-.02-.13-.4-.05-.46.1-.08.28-.11.47-.09l5.45.74c.17.02.2.19.22.26.04.12-.03.43-.33.39h0Z"/>
      <path class="cls-5" d="M14.44,51.06l-5.95-.52c-.1,0-.14-.44-.05-.5.1-.06.29-.11.49-.09l5.6.55c.16.02.14.58-.09.56h0Z"/>
    </g>
  </g>
  <g>
    <path class="cls-2" d="M95.73,13.43v26.73h-8.34v-13.33l-4.12,13.33h-7.17l-4.12-13.33v13.33h-8.38V13.43h10.27l5.89,16.04,5.74-16.04h10.23Z"/>
    <path class="cls-2" d="M120.01,30.98h-13.48c.13,1.84.89,2.76,2.3,2.76.91,0,1.56-.42,1.96-1.25h8.87c-.3,1.51-.94,2.86-1.91,4.06-.97,1.2-2.19,2.14-3.66,2.83-1.47.69-3.09,1.04-4.85,1.04-2.11,0-4-.44-5.64-1.32-1.65-.88-2.93-2.15-3.85-3.79-.92-1.65-1.38-3.58-1.38-5.79s.46-4.15,1.38-5.79c.92-1.65,2.2-2.91,3.85-3.79s3.53-1.32,5.64-1.32,4,.43,5.64,1.3c1.65.87,2.93,2.11,3.85,3.72.92,1.61,1.38,3.51,1.38,5.7,0,.58-.04,1.13-.11,1.66ZM111.63,27.32c0-.7-.23-1.24-.68-1.6-.45-.36-1.02-.55-1.7-.55-1.49,0-2.35.72-2.6,2.15h4.98Z"/>
    <path class="cls-2" d="M122.78,23.68c.77-1.65,1.82-2.91,3.15-3.77,1.33-.87,2.83-1.3,4.49-1.3,1.38,0,2.57.28,3.57.85.99.57,1.76,1.34,2.28,2.32v-9.55h8.38v27.94h-8.38v-2.91c-.53.98-1.29,1.76-2.28,2.32-.99.57-2.18.85-3.57.85-1.66,0-3.16-.43-4.49-1.3-1.33-.87-2.38-2.13-3.15-3.78-.77-1.65-1.15-3.59-1.15-5.83s.38-4.18,1.15-5.83ZM135.45,26.87c-.58-.63-1.32-.94-2.23-.94s-1.65.31-2.23.94c-.58.63-.87,1.51-.87,2.64s.29,2.01.87,2.64c.58.63,1.32.94,2.23.94s1.65-.31,2.23-.94c.58-.63.87-1.51.87-2.64s-.29-2.01-.87-2.64Z"/>
    <path class="cls-2" d="M68.16,70.82c-1.32-.6-2.36-1.45-3.11-2.53-.76-1.08-1.16-2.29-1.21-3.62h2.79c.13,1.28.69,2.41,1.7,3.38,1.01.97,2.48,1.45,4.42,1.45,1.79,0,3.2-.46,4.25-1.38,1.04-.92,1.57-2.08,1.57-3.49,0-1.13-.29-2.04-.87-2.74-.58-.69-1.3-1.21-2.15-1.55-.86-.34-2.04-.71-3.55-1.11-1.76-.48-3.16-.94-4.19-1.4-1.03-.45-1.91-1.16-2.64-2.11-.73-.96-1.1-2.25-1.1-3.89,0-1.36.35-2.57,1.06-3.64.7-1.07,1.7-1.91,2.98-2.51,1.28-.6,2.76-.91,4.42-.91,2.44,0,4.41.6,5.91,1.79,1.5,1.2,2.36,2.74,2.59,4.62h-2.87c-.18-1.08-.77-2.04-1.77-2.89-1.01-.84-2.37-1.26-4.08-1.26-1.59,0-2.91.42-3.96,1.26-1.06.84-1.59,2-1.59,3.45,0,1.11.29,2,.87,2.68.58.68,1.3,1.2,2.17,1.55.87.35,2.04.73,3.53,1.13,1.71.48,3.1.95,4.15,1.42s1.95,1.18,2.68,2.13c.73.96,1.09,2.24,1.09,3.85,0,1.23-.33,2.4-.98,3.51-.65,1.11-1.62,2-2.91,2.68s-2.82,1.02-4.61,1.02-3.27-.3-4.59-.91Z"/>
    <path class="cls-2" d="M116.78,52.75c1.52,1.52,2.28,3.73,2.28,6.63v12.08h-2.6v-11.78c0-2.24-.54-3.95-1.62-5.13s-2.55-1.77-4.42-1.77-3.49.64-4.64,1.92c-1.16,1.28-1.74,3.15-1.74,5.59v11.17h-2.6v-11.78c0-2.24-.54-3.95-1.62-5.13s-2.57-1.77-4.45-1.77-3.49.64-4.64,1.92c-1.16,1.28-1.74,3.15-1.74,5.59v11.17h-2.64v-20.61h2.64v3.55c.65-1.28,1.59-2.26,2.79-2.93,1.21-.67,2.55-1,4.04-1,1.79,0,3.35.43,4.7,1.28,1.35.86,2.32,2.11,2.93,3.78.55-1.64,1.5-2.89,2.85-3.76,1.35-.87,2.88-1.3,4.59-1.3,2.42,0,4.39.76,5.91,2.28Z"/>
    <path class="cls-2" d="M124.97,55.55c.84-1.6,2.01-2.83,3.51-3.7,1.5-.87,3.19-1.3,5.08-1.3s3.66.45,5.08,1.36c1.42.91,2.45,2.06,3.08,3.47v-4.53h2.64v20.61h-2.64v-4.57c-.65,1.41-1.69,2.57-3.11,3.49-1.42.92-3.11,1.38-5.08,1.38s-3.54-.44-5.04-1.32c-1.5-.88-2.67-2.13-3.51-3.74-.84-1.61-1.26-3.47-1.26-5.59s.42-3.97,1.26-5.57ZM140.69,56.77c-.68-1.26-1.6-2.23-2.77-2.91s-2.46-1.02-3.87-1.02-2.77.33-3.93.98c-1.16.66-2.07,1.6-2.74,2.85-.67,1.25-1,2.72-1,4.44s.33,3.17,1,4.44c.67,1.27,1.58,2.24,2.74,2.91s2.47,1,3.93,1,2.7-.34,3.87-1.02c1.17-.68,2.1-1.65,2.77-2.91.68-1.26,1.02-2.72,1.02-4.38s-.34-3.12-1.02-4.38Z"/>
    <path class="cls-2" d="M155.7,51.53c1.19-.7,2.66-1.06,4.4-1.06v2.76h-.72c-1.91,0-3.45.52-4.61,1.55-1.16,1.03-1.74,2.76-1.74,5.17v11.51h-2.64v-20.61h2.64v3.66c.58-1.28,1.47-2.28,2.66-2.98Z"/>
    <path class="cls-2" d="M167.5,53.07v12.8c0,1.26.24,2.13.72,2.6.48.48,1.32.72,2.53.72h2.42v2.26h-2.83c-1.86,0-3.25-.43-4.15-1.3-.91-.87-1.36-2.3-1.36-4.28v-12.8h-2.87v-2.23h2.87v-5.17h2.68v5.17h5.66v2.23h-5.66Z"/>
  </g>
</svg>