<svg width="178" height="79" viewBox="0 0 178 79" fill="none" xmlns="http://www.w3.org/2000/svg">
<g clip-path="url(#clip0_52_1228)">
<path d="M3.28837 69.7695C4.18377 71.2077 5.51711 71.9864 7.19453 72.4664L17.9687 75.542C20.3069 76.2094 22.4907 76.2699 24.9619 75.9732L53.1437 72.5952C55.1241 72.3571 56.7683 71.6761 57.8866 70.0719C59.3412 70.6711 61.218 71.2624 61.0166 72.3591C60.8583 73.2275 59.0381 73.9535 57.6637 74.1896C46.4438 76.1176 35.2649 77.6281 23.9414 78.8595C21.4233 79.1327 19.1632 79.0195 16.7957 78.2701L5.08309 74.5604C3.17107 73.9535 0.220919 73.0987 0.00977578 71.9649C-0.179863 70.9462 1.72434 70.0817 3.28446 69.7675L3.28837 69.7695Z" fill="#D1E5F8"/>
<path d="M71.9746 32.5488C73.4956 36.8752 78.5083 37.4314 82.6667 35.3629L83.9589 38.6296C80.958 40.1089 77.6168 40.4348 74.4477 39.66C68.4379 38.1905 65.9941 31.9848 67.609 26.0992C68.4418 23.0626 70.6256 20.6896 73.6227 19.6554C77.0479 18.4747 80.8544 18.7791 84.0078 20.5296L82.5924 23.732C80.8778 22.7894 79.0557 22.3562 77.1378 22.5084C74.7292 22.6997 72.784 24.1808 71.9922 26.4192C71.2825 28.4234 71.2669 30.5349 71.9746 32.5469V32.5488Z" fill="white"/>
<path d="M124.651 39.6054L120.354 39.66L116.87 34.3754L113.566 39.6347L109.331 39.6249L114.573 32.0922L109.599 25.0102L114.025 24.9868L117.157 29.6548L120.139 24.9595L124.297 24.9771L119.345 32.018L124.651 39.6054Z" fill="white"/>
<path d="M107.052 24.9653H103.107V39.6932H107.052V24.9653Z" fill="white"/>
<path d="M105.091 22.8382C106.362 22.8382 107.392 21.8099 107.392 20.5413C107.392 19.2728 106.362 18.2444 105.091 18.2444C103.82 18.2444 102.79 19.2728 102.79 20.5413C102.79 21.8099 103.82 22.8382 105.091 22.8382Z" fill="white"/>
<path d="M135.935 38.05C133.591 40.505 129.065 40.7353 126.913 38.2276C125.945 37.1016 125.832 35.6341 126.283 34.0807C127.169 31.0442 132.239 30.5407 135.587 30.5349C135.961 29.1513 135.054 27.957 133.615 27.7891C131.638 27.5589 129.738 27.9316 127.758 28.6322L127.327 25.7635C129.767 24.6999 132.495 24.3038 135.155 24.7702C137.703 25.2151 139.49 27.1959 139.509 29.7816L139.578 39.6405L136.17 39.619C136.17 39.016 136.217 38.6394 135.937 38.0461L135.935 38.05ZM135.693 34.7091L135.703 33.0542C133.101 32.8123 129.724 33.3606 130.006 35.4799C130.119 36.3347 130.788 36.8557 131.699 37.0119C133.396 37.3026 135.249 36.5318 135.695 34.7091H135.693Z" fill="white"/>
<path d="M99.087 27.5901C98.5924 28.3746 99.3861 29.325 98.8563 31.1633L98.8231 33.2806C98.3011 35.999 99.4741 37.6968 98.6452 39.3302L96.3402 39.3029L96.346 38.1652C96.8837 37.8549 94.9912 37.2441 94.2248 37.4705L92.4438 37.9954C91.5073 38.4716 90.8289 38.8131 89.7048 38.8697C89.1887 38.895 88.5767 39.299 88.0391 39.0512C85.9589 37.7066 85.8377 34.5627 87.0753 33.0542C88.0215 31.9009 89.3607 31.1145 90.8348 30.9798L95.7595 30.529C95.9863 29.8304 95.824 29.1201 95.3236 28.5327C94.1681 27.1764 90.4125 27.8145 88.0078 28.6107L87.566 25.7128C91.5582 24.1184 97.3568 23.7066 99.0909 27.5881L99.087 27.5901ZM95.8788 34.7481L95.8847 33.0211C93.1965 32.9059 89.9394 33.2709 90.2405 35.5014C90.3441 36.2644 90.9521 36.8343 91.8162 37.0119C93.5347 37.367 95.4409 36.6138 95.8788 34.7462V34.7481Z" fill="white"/>
<path d="M96.3382 39.3029L98.6432 39.3302C99.4741 37.6968 98.2991 35.999 98.8211 33.2806L98.8544 31.1633C99.3842 29.325 98.5924 28.3746 99.0851 27.5901C99.4643 28.437 99.7126 29.2918 99.7126 30.3612L99.7068 39.6659L96.3304 39.7478C96.26 39.5254 96.3363 39.3985 96.3363 39.3029H96.3382Z" fill="white"/>
<path d="M96.3441 38.1652C96.0782 38.1652 95.9179 38.3057 95.6637 38.5165C93.5054 40.2982 90.3128 40.5226 88.0391 39.0512C88.5767 39.299 89.1867 38.895 89.7048 38.8697C90.8289 38.8131 91.5073 38.4716 92.4438 37.9954L94.2248 37.4705C94.9932 37.2441 96.8837 37.8549 96.346 38.1652H96.3441Z" fill="white"/>
<path d="M119.419 69.4006C119.392 68.6396 119.638 68.1283 119.828 67.455C121.374 68.2044 122.948 68.5322 124.637 68.2805C126.884 67.9448 127.996 65.808 127.527 63.4057C126.291 64.7054 124.841 65.1893 123.05 64.9864C121.664 64.8283 120.135 64.0711 119.3 62.6075C117.908 60.1662 117.904 56.9872 119.378 54.6299C120.266 53.2111 121.603 52.3622 122.901 52.1241C124.712 51.7924 126.284 52.3115 127.523 53.4668C127.891 53.3341 128.004 52.8735 127.892 52.5027C128.594 52.3095 129.161 52.3759 129.967 52.4227L129.816 65.0683C129.793 67.0179 128.606 68.9011 126.847 69.5997C124.473 70.5442 121.873 70.2847 119.415 69.4006H119.419ZM127.56 60.6912C127.758 59.2685 127.701 57.8479 127.57 56.5208C127.423 55.026 126.154 54.0386 124.817 53.8649C123.48 53.6912 122.098 54.341 121.365 55.6036C120.399 57.2644 120.403 59.3759 121.148 61.1381C121.754 62.5783 123.066 63.2866 124.555 63.2379C125.865 63.1949 127.331 62.3324 127.56 60.6892V60.6912Z" fill="white"/>
<path d="M104.407 62.6505C104.725 63.2535 104.833 63.716 104.89 64.3248C102.942 65.1874 100.778 65.5035 98.6667 65.0274C94.741 64.1395 93.4389 59.9106 94.5982 56.152C95.173 54.2903 96.7273 52.7857 98.3285 52.3232C100.413 51.7222 102.557 52.011 103.998 53.4902C105.439 54.9694 105.717 57.198 105.513 59.13L96.5689 59.1378C96.3617 61.3547 97.9159 63.2398 100.205 63.4408C101.64 63.5677 102.954 63.2671 104.405 62.6485L104.407 62.6505ZM103.322 57.3717C103.329 55.8574 102.79 54.8992 102.039 54.3157C101.179 53.6463 99.9629 53.5663 98.958 53.939C97.521 54.4718 96.6393 55.9744 96.5885 57.4127L103.322 57.3717Z" fill="white"/>
<path d="M142.381 62.6368C142.71 63.2125 142.78 63.7082 142.95 64.3073C141.007 65.1601 138.911 65.486 136.774 65.0469C134.44 64.5668 132.739 62.7324 132.344 60.3809C132.004 58.3572 132.28 56.2184 133.396 54.5557C134.52 52.8852 136.17 52.0636 138.125 52.0168C140.276 51.9661 142.096 52.9945 142.995 54.985C143.593 56.3062 143.636 57.7854 143.474 59.1729L134.532 59.1475C134.463 61.4952 136.049 63.3081 138.325 63.4369C139.697 63.5618 140.948 63.3022 142.379 62.6407L142.381 62.6368ZM141.31 57.3775C141.329 55.8886 140.854 54.9792 140.117 54.382C139.281 53.7048 138.108 53.5721 137.054 53.8941C135.523 54.3625 134.649 55.9022 134.571 57.4302L141.31 57.3775Z" fill="white"/>
<path d="M176.811 62.6719L177.363 64.2819C175.783 65.0449 174.125 65.3025 172.348 65.2206C169.279 65.082 166.978 62.8632 166.678 59.8286C166.272 55.7032 168.414 52.13 172.542 52.009C175.079 51.9349 177.157 53.4648 177.779 55.951C178.041 57.0009 178.043 58.0625 177.92 59.1554L168.944 59.1456C168.911 61.1888 170.074 62.8768 171.977 63.3374C173.593 63.634 175.118 63.4096 176.809 62.6719H176.811ZM175.73 57.4263C175.81 56.1091 175.369 55.1138 174.524 54.3098C173.339 53.5683 171.74 53.496 170.573 54.343C169.57 55.0728 169.054 56.2574 168.983 57.4263H175.728H175.73Z" fill="white"/>
<path d="M75.3705 56.8312L75.2845 64.9708L73.001 64.9903L72.958 52.4071L74.9697 52.4227C75.0557 52.9926 74.9599 53.418 75.2551 54.0991C76.1603 52.7408 77.4897 52.171 79.0948 52.0383C81.5777 51.8314 83.7146 53.5624 83.7283 56.1442L83.7713 64.9688H81.4839L81.4194 56.5755C81.4057 54.8816 80.1232 53.8786 78.5083 53.9664C76.8935 54.0542 75.39 55.0319 75.3705 56.8312Z" fill="white"/>
<path d="M92.6804 63.2144L92.9013 64.9103C91.7517 65.2206 90.5064 65.3747 89.2845 65.041C88.0626 64.7073 87.3979 63.5638 87.3881 62.3519L87.3333 54.1381C86.6354 54.0073 86.045 54.0737 85.4389 54.1205L85.4194 52.4286L87.3275 52.3876L87.3549 49.1306L89.6266 48.6935L89.6227 52.3427L92.8505 52.3896L92.8837 54.0659L89.6266 54.1361V61.7645C89.6266 62.4495 89.9961 63.1598 90.6491 63.3413C91.3021 63.5228 91.9296 63.3901 92.6804 63.2144Z" fill="white"/>
<path d="M165.37 63.232L165.558 64.9513C164.54 65.2089 163.511 65.2986 162.463 65.1542C161.022 64.9552 160.125 63.8018 160.115 62.348L160.065 54.1517L158.125 54.0874L158.133 52.4071L160.022 52.3466L160.092 49.0955L162.336 48.5803L162.366 52.3252L165.458 52.4208L165.507 54.062L162.371 54.1186L162.375 61.9304C162.375 62.832 163.06 63.5384 163.937 63.4213L165.372 63.2301L165.37 63.232Z" fill="white"/>
<path d="M155.214 53.1331C154.936 54.0288 155.214 55.4007 154.487 56.2477C154.272 55.3949 154.057 55.0182 153.611 54.7021C152.549 53.9547 151.371 53.6541 150.065 54.2357C149.042 54.6923 148.096 55.7617 148.094 57.1005L148.08 64.9981H145.812L145.754 52.4091L147.803 52.4364C147.799 53.0765 147.791 53.5546 148.031 54.0737C149.838 51.7085 153.212 51.3553 155.214 53.1311V53.1331Z" fill="white"/>
<path d="M110.874 65.0605C110.254 65.164 109.372 65.3318 108.725 64.961C108.145 64.6273 107.894 63.8253 107.894 63.1247L107.881 46.3809L110.168 46.3868L110.205 62.6817L110.876 65.0625L110.874 65.0605Z" fill="white"/>
<path d="M67.1355 47.2393L67.1292 64.9919L69.4577 64.9927L69.4639 47.2401L67.1355 47.2393Z" fill="white"/>
<path d="M113.591 52.3765L113.586 64.9987L115.887 64.9995L115.892 52.3773L113.591 52.3765Z" fill="white"/>
<path d="M153.611 54.7021C154.059 55.0162 154.272 55.3929 154.487 56.2476C155.216 55.4007 154.936 54.0288 155.214 53.1331C155.875 53.7185 156.485 54.6064 156.497 55.7266L156.6 64.9786L154.246 64.9864L154.274 57.8771C154.278 56.7043 154.129 55.6797 153.611 54.7021Z" fill="white"/>
<path d="M114.745 49.8663C115.541 49.8663 116.186 49.2224 116.186 48.428C116.186 47.6337 115.541 46.9898 114.745 46.9898C113.949 46.9898 113.304 47.6337 113.304 48.428C113.304 49.2224 113.949 49.8663 114.745 49.8663Z" fill="white"/>
<path d="M41.6618 27.2271L40.9189 28.0545C40.8485 28.1326 40.8133 28.3277 40.7331 28.3882C39.8807 29.0478 39.2375 30.0802 38.7292 30.9974C38.436 31.3233 37.957 31.6902 37.6188 32.1078L36.2111 33.8426C35.9648 34.1471 35.4624 34.5335 35.085 34.9218C34.3519 34.6408 33.9844 33.991 33.5386 33.4816L31.8221 31.5243C31.4135 31.0579 31.087 30.5817 30.6569 30.1368C30.2268 29.6918 29.8807 28.9444 29.2512 28.6439C29.044 27.9589 28.346 27.3871 27.8788 26.8583L26.9521 25.8103C26.7351 25.5644 26.5591 25.5313 26.348 25.5118C26.3773 25.2698 26.3304 25.0512 26.176 24.8502L23.6598 21.5249C18.9853 14.8313 20.9814 5.66906 28.1388 1.73292C33.7634 -1.36019 40.6784 -0.22247 44.9501 4.43572C49.2532 9.12514 49.6931 16.2071 45.9902 21.5405L41.6598 27.2271H41.6618ZM27.5679 19.8095C29.7986 22.5377 33.7986 22.9963 36.2874 20.5823L41.5132 15.5143C43.7498 13.3443 43.826 9.85109 41.955 7.57761C40.0919 5.31194 36.5357 4.4084 34.088 6.3111L27.8358 12.1773C25.74 14.1444 25.7224 17.5556 27.5679 19.8115V19.8095Z" fill="#11D3C9"/>
<path d="M29.2512 28.6439C29.4761 29.3913 29.7458 30.1036 30.6569 30.1368C31.087 30.5817 31.4135 31.0579 31.8221 31.5243C30.3597 31.6336 28.5709 31.2101 28.217 29.6528L27.6774 27.2739C27.7849 27.149 27.8416 27.0105 27.8807 26.8583C28.348 27.3871 29.0459 27.9589 29.2532 28.6439H29.2512Z" fill="black"/>
<path d="M40.7331 28.3882L41.3138 30.0119C41.3998 30.2617 41.3666 30.5446 41.261 30.7281C41.1613 30.9018 40.8641 31.0793 40.5455 31.0715L38.7292 30.9974C39.2375 30.0802 39.8807 29.0459 40.7331 28.3882Z" fill="#EDF5FB"/>
<path d="M30.6569 30.1368C29.7458 30.1036 29.476 29.3933 29.2512 28.6439C29.8807 28.9444 30.2268 29.6918 30.6569 30.1368Z" fill="#D1E5F8"/>
<path d="M27.5679 19.8095C25.7224 17.5536 25.74 14.1424 27.8358 12.1753L34.088 6.30915C36.5357 4.40645 40.0919 5.30998 41.955 7.57566C43.826 9.85109 43.7498 13.3442 41.5132 15.5123L36.2874 20.5804C33.7986 22.9943 29.7986 22.5357 27.5679 19.8076V19.8095ZM38.1662 15.6704L40.2776 13.475C41.2278 11.9567 41.1261 10.0736 39.9941 8.77387C38.9052 7.52297 36.913 7.07022 35.4291 8.03621C34.4399 8.6802 33.7439 9.57398 32.8895 10.4658L38.1642 15.6704H38.1662ZM36.3539 17.257L31.2258 12.0719L29.4194 13.7541C28.1427 15.2372 28.2717 17.4072 29.5151 18.705C30.8465 20.0964 33.0655 20.3637 34.5572 19.0972C35.216 18.5391 35.871 18.0239 36.3539 17.2589V17.257Z" fill="#FBFBFC"/>
<path d="M38.1662 15.6704L32.8915 10.4658C33.7458 9.57593 34.4418 8.68019 35.4311 8.0362C36.913 7.07022 38.9052 7.52296 39.9961 8.77386C41.1281 10.0736 41.2297 11.9567 40.2796 13.475L38.1681 15.6704H38.1662Z" fill="#4486FF"/>
<path d="M36.3539 17.257C35.871 18.022 35.216 18.5372 34.5572 19.0953C33.0635 20.3618 30.8465 20.0925 29.5152 18.703C28.2718 17.4053 28.1427 15.2352 29.4194 13.7521L31.2258 12.0699L36.3539 17.255V17.257Z" fill="#4486FF"/>
<path d="M26.348 25.5117C26.5591 25.5313 26.7351 25.5644 26.9521 25.8103L27.8788 26.8583C27.8397 27.0105 27.783 27.149 27.6755 27.2739C27.4291 27.0183 27.0538 26.9285 26.6217 26.8817L17.7928 25.9391C17.3079 25.8864 16.913 25.9625 16.5533 25.9801C16.0997 26.0035 15.7869 25.9528 15.3666 26.1694C14.8153 26.4543 14.3265 26.7685 13.7889 27.2505L4.95993 35.197C4.14272 35.9327 3.80841 37.0704 3.80645 38.1496L3.79472 44.0411L3.79081 44.7768L3.81037 67.2208C3.81037 69.0884 5.12024 70.5832 6.83871 71.0731L19.6227 74.7106C20.7155 75.0209 21.7947 74.8999 22.8172 74.9175C23.2532 74.9253 23.8377 74.9838 24.0215 74.5077C24.7722 74.7087 25.4721 74.6755 26.3636 74.5662L54.088 71.196C56.3832 70.9169 57.5758 68.7703 57.5679 66.6588L57.5015 44.8002L57.5895 44.0509L57.5171 38.4384C57.4995 37.0509 56.3949 36.3054 55.5308 35.5443L49.3998 30.1426C48.868 29.6743 48.1134 29.282 47.39 29.2137L42.1896 28.7297C41.6755 28.6829 41.218 28.5248 40.9208 28.0526L41.6637 27.2252L47.7947 28.074C49.2473 28.2633 50.4027 29.2645 51.4643 30.2246L57.6227 35.7902C58.4321 36.5201 58.8153 37.7924 58.8133 38.8501L58.7977 47.7235C58.436 47.948 58.436 48.67 58.7879 48.8964V52.7955C58.5357 52.8442 58.5435 53.0823 58.5416 53.2853C58.5396 53.4882 58.5376 53.7283 58.8055 53.7751L58.8153 67.4609C58.8153 68.4112 58.3695 69.3889 57.8925 70.0739C56.7742 71.6761 55.132 72.3591 53.1496 72.5972L24.9677 75.9752C22.4966 76.2718 20.3128 76.2094 17.9746 75.5439L7.2004 72.4684C5.52298 71.9903 4.18769 71.2097 3.29424 69.7714C2.72923 68.864 2.59824 67.8433 2.59824 66.6354L2.60802 38.2023C2.60802 36.4908 3.17107 35.1423 4.40861 34.0378L12.956 26.4133C14.4067 25.1195 15.9414 24.5165 17.9257 24.7058L26.3539 25.5117H26.348Z" fill="black"/>
<path d="M58.7859 48.8983C58.436 48.672 58.434 47.948 58.7957 47.7255L58.7859 48.8983Z" fill="#26406A"/>
<path d="M58.8035 53.777C58.5357 53.7302 58.5396 53.4921 58.5396 53.2872C58.5396 53.0823 58.5337 52.8462 58.7859 52.7974L58.8035 53.777Z" fill="#26406A"/>
<path d="M33.5386 33.4816C33.9844 33.989 34.3519 34.6388 35.085 34.9218C35.4624 34.5335 35.9629 34.1451 36.2111 33.8426L54.0547 35.8C54.6373 35.8605 55.0753 35.9756 55.5308 35.5463C56.3949 36.3074 57.4995 37.0528 57.5171 38.4403L57.5894 44.0528L20.9482 44.0879L20.9189 34.1158C20.9169 33.3957 20.5259 32.7693 20.174 32.1975L19.4213 30.9622C20.0645 30.8373 20.5357 31.1106 21.0714 31.4755C22.1212 32.1936 23.3509 32.4981 24.6217 32.6581L31.7556 33.5597C32.4047 33.6416 32.9873 33.7177 33.5386 33.4836V33.4816ZM53.5425 38.7174L26.3304 38.1652C25.4409 38.1476 24.8719 38.9028 24.9404 39.6015C25.0166 40.3821 25.6735 40.7821 26.5415 40.7997L53.259 41.3285C54.0743 41.3441 54.5924 40.8387 54.6686 40.1986C54.7351 39.6483 54.4868 38.7389 53.5425 38.7194V38.7174Z" fill="#FBFBFC"/>
<path d="M55.5288 35.5443C55.0753 35.9737 54.6374 35.8605 54.0528 35.798L36.2092 33.8407L37.6168 32.1058L40.5885 32.2971C41.6657 32.3595 42.7116 31.497 42.6393 30.4158L42.1857 28.7317L47.3861 29.2157C48.1075 29.282 48.8622 29.6743 49.3959 30.1446L55.5269 35.5463L55.5288 35.5443Z" fill="#EDF5FB"/>
<path d="M27.6774 27.2739L28.217 29.6528C28.5709 31.212 30.3597 31.6355 31.8221 31.5243L33.5386 33.4816C32.9873 33.7158 32.4027 33.6397 31.7556 33.5577L24.6217 32.6561C23.3509 32.4961 22.1212 32.1917 21.0714 31.4735C20.5357 31.1066 20.0645 30.8354 19.4213 30.9603L17.0675 27.4788C16.7507 27.0105 16.4888 26.5597 16.5533 25.9801C16.913 25.9625 17.306 25.8864 17.7928 25.9391L26.6217 26.8817C27.0538 26.9285 27.4291 27.0183 27.6755 27.2739H27.6774Z" fill="#F1F8FC"/>
<path d="M42.1877 28.7317L42.6413 30.4158C42.7136 31.497 41.6676 32.3595 40.5904 32.2971L37.6188 32.1058C37.957 31.6882 38.4379 31.3213 38.7292 30.9954L40.5455 31.0696C40.8641 31.0754 41.1613 30.8998 41.261 30.7261C41.3666 30.5427 41.4018 30.2597 41.3138 30.0099L40.7331 28.3863C40.8133 28.3258 40.8485 28.1306 40.9189 28.0526C41.216 28.5268 41.6735 28.6829 42.1877 28.7297V28.7317Z" fill="black"/>
<path d="M57.4995 44.7983L57.566 66.6568C57.5719 68.7664 56.3812 70.913 54.086 71.194L26.3617 74.5643C25.4702 74.6735 24.7703 74.7067 24.0196 74.5057C22.3324 74.0081 20.9462 72.5347 20.9443 70.5247L20.9169 44.767L57.4995 44.7963V44.7983ZM43.3607 52.9457C44.6569 52.6062 45.2923 51.5758 45.175 50.4146C45.0733 49.4057 44.2854 48.387 43.1066 48.3851L37.4721 48.3792C36.1642 48.3792 35.2336 49.3725 35.2024 50.5493C35.1711 51.726 35.9277 52.653 37.1437 52.9164L43.3627 52.9438L43.3607 52.9457Z" fill="#FBFCFC"/>
<path d="M22.8172 74.9155C21.7947 74.8999 20.7155 75.0209 19.6227 74.7087L6.83872 71.0711C5.1222 70.5832 3.81232 69.0864 3.81037 67.2189L3.79082 44.7748L20.0821 44.7651L20.0645 70.1441C20.0645 72.2849 21.0655 73.9242 22.8153 74.9136L22.8172 74.9155ZM14.4321 51.0567C14.6569 51.0762 14.6784 50.5083 14.522 50.4927L8.92278 49.9443C8.72141 49.9248 8.52396 49.9756 8.42816 50.038C8.34409 50.0926 8.37928 50.5278 8.48094 50.5376L14.434 51.0547L14.4321 51.0567ZM14.4106 53.5331C14.6295 53.5526 14.6315 53.0394 14.4888 52.9945L14.1505 52.8891L8.90323 52.3973C8.60802 52.37 8.42229 52.4578 8.40274 52.6901C8.39297 52.7974 8.44184 52.9926 8.68818 53.016L14.4125 53.5331H14.4106ZM14.4634 56.0818C14.608 55.9412 14.6041 55.6212 14.4888 55.5295C14.4282 55.4807 14.3226 55.4202 14.1486 55.4007L8.72337 54.8094C8.46335 54.7821 8.35582 54.9128 8.32454 55.0436C8.2874 55.1919 8.37928 55.4026 8.59825 55.426L14.4634 56.0798V56.0818ZM14.4731 58.7748C14.6002 58.7904 14.61 58.1737 14.5259 58.1913C14.4418 58.2089 14.3539 58.1113 14.1799 58.0879L8.5787 57.3795C8.42425 57.36 8.32259 57.6625 8.35387 57.762C8.38906 57.8732 8.52787 58.0118 8.74292 58.0391L14.4731 58.7729V58.7748ZM14.2385 61.4893C14.5396 61.5322 14.608 61.2181 14.5728 61.101C14.5513 61.0327 14.524 60.8668 14.35 60.8434L8.89737 60.1057C8.70186 60.0784 8.52591 60.1116 8.42425 60.1916C8.34605 60.254 8.37146 60.6365 8.47703 60.6521L14.2405 61.4893H14.2385Z" fill="#FCFCFD"/>
<path d="M3.79473 44.0411L3.80646 38.1496C3.80841 37.0704 4.14272 35.9327 4.95993 35.197L13.7889 27.2505C14.3265 26.7666 14.8153 26.4543 15.3666 26.1694C15.7458 26.3353 15.6989 26.8017 15.8886 27.0925L19.2747 32.2951C19.8241 33.062 20.1036 33.8817 20.0997 34.8438L20.0665 44.084L3.79277 44.0411H3.79473Z" fill="#FCFCFD"/>
<path d="M16.5552 25.9801C16.4907 26.5577 16.7527 27.0105 17.0694 27.4788L19.4233 30.9603L20.176 32.1956C20.5279 32.7674 20.9189 33.3938 20.9208 34.1139L20.9501 44.086L57.5914 44.0508L57.5034 44.8002L20.9208 44.7709L20.9482 70.5286C20.9501 72.5386 22.3363 74.012 24.0235 74.5096C23.8397 74.9858 23.2551 74.9272 22.8192 74.9194C21.0675 73.93 20.0665 72.2908 20.0684 70.15L20.086 44.7709L3.79472 44.7807L3.79863 44.045L20.0723 44.0879L20.1056 34.8476C20.1095 33.8856 19.8299 33.0659 19.2806 32.299L15.8944 27.0964C15.7048 26.8056 15.7517 26.3392 15.3724 26.1733C15.7928 25.9567 16.1056 26.0055 16.5591 25.984L16.5552 25.9801Z" fill="black"/>
<path d="M53.5425 38.7174C54.4868 38.737 54.7351 39.6464 54.6686 40.1967C54.5924 40.8368 54.0743 41.3422 53.2591 41.3266L26.5415 40.7977C25.6735 40.7802 25.0166 40.3801 24.9404 39.5995C24.8719 38.8989 25.4389 38.1437 26.3304 38.1632L53.5425 38.7155V38.7174Z" fill="#4486FF"/>
<path d="M43.3607 52.9457L37.1417 52.9184C35.9257 52.655 35.1711 51.689 35.2004 50.5513C35.2297 49.4135 36.1623 48.3792 37.4702 48.3812L43.1046 48.3871C44.2835 48.3871 45.0714 49.4077 45.173 50.4166C45.2903 51.5777 44.6569 52.6062 43.3588 52.9477L43.3607 52.9457Z" fill="#11D3C9"/>
<path d="M14.4633 56.0818L8.59824 55.428C8.37928 55.4026 8.28739 55.1938 8.32454 55.0455C8.35582 54.9148 8.46335 54.7821 8.72337 54.8113L14.1486 55.4026C14.3245 55.4222 14.4282 55.4827 14.4888 55.5314C14.6022 55.6232 14.6061 55.9413 14.4633 56.0837V56.0818Z" fill="#7C99C3"/>
<path d="M14.4106 53.5331L8.68622 53.016C8.43989 52.9945 8.39297 52.7974 8.40079 52.6901C8.42034 52.4559 8.60606 52.3681 8.90127 52.3973L14.1486 52.8891L14.4868 52.9945C14.6295 53.0394 14.6276 53.5526 14.4086 53.5331H14.4106Z" fill="#7C99C3"/>
<path d="M14.4731 58.7748L8.74292 58.0411C8.52786 58.0137 8.38905 57.8752 8.35386 57.7639C8.32258 57.6644 8.42425 57.3619 8.57869 57.3815L14.1799 58.0898C14.3539 58.1113 14.4458 58.2089 14.5259 58.1933C14.61 58.1757 14.6002 58.7943 14.4731 58.7768V58.7748Z" fill="#7C99C3"/>
<path d="M14.2385 61.4893L8.47508 60.6521C8.36951 60.6365 8.34605 60.254 8.42229 60.1916C8.52395 60.1096 8.69991 60.0784 8.89541 60.1057L14.348 60.8434C14.522 60.8668 14.5494 61.0327 14.5709 61.101C14.6061 61.2181 14.5376 61.5322 14.2366 61.4893H14.2385Z" fill="#7C99C3"/>
<path d="M14.4321 51.0567L8.47898 50.5395C8.37732 50.5317 8.34213 50.0946 8.4262 50.04C8.52199 49.9775 8.71945 49.9268 8.92082 49.9463L14.52 50.4947C14.6764 50.5103 14.6569 51.0781 14.4301 51.0586L14.4321 51.0567Z" fill="#7C99C3"/>
<path d="M140.999 50.5376L138.076 47.665H138.041L135.118 50.5376H133.894L137.517 46.3887H138.602L142.223 50.5376H140.999Z" fill="white"/>
</g>
<defs>
<clipPath id="clip0_52_1228">
<rect width="178" height="79" fill="white"/>
</clipPath>
</defs>
</svg>
