<?xml version="1.0" encoding="UTF-8"?>
<svg id="Camada_1" xmlns="http://www.w3.org/2000/svg" version="1.1" xmlns:xlink="http://www.w3.org/1999/xlink" viewBox="0 0 178 79">
  <!-- Generator: Adobe Illustrator 30.3.0, SVG Export Plug-In . SVG Version: 2.1.3 Build 182)  -->
  <defs>
    <style>
      .st0 {
        fill: #edf5fb;
      }

      .st1 {
        fill: #4486ff;
      }

      .st2 {
        fill: none;
      }

      .st3 {
        fill: #f1f8fc;
      }

      .st4 {
        fill: #7c99c3;
      }

      .st5 {
        fill: #fbfcfc;
      }

      .st6 {
        fill: #d1e5f8;
      }

      .st7 {
        fill: #fcfcfd;
      }

      .st8 {
        fill: #11d3c9;
      }

      .st9 {
        fill: #fbfbfc;
      }

      .st10 {
        clip-path: url(#clippath);
      }

      .st11 {
        fill: #26406a;
      }
    </style>
    <clipPath id="clippath">
      <rect class="st2" y="0" width="178" height="79"/>
    </clipPath>
  </defs>
  <g class="st10">
    <g>
      <path class="st6" d="M3.3,69.8c.9,1.4,2.2,2.2,3.9,2.7l10.8,3.1c2.3.7,4.5.7,7,.4l28.2-3.4c2-.2,3.6-.9,4.7-2.5,1.5.6,3.3,1.2,3.1,2.3-.2.9-2,1.6-3.4,1.8-11.2,1.9-22.4,3.4-33.7,4.7-2.5.3-4.8.2-7.1-.6l-11.7-3.7c-1.9-.6-4.9-1.5-5.1-2.6-.2-1,1.7-1.9,3.3-2.2h0Z"/>
      <path class="st1" d="M72,32.5c1.5,4.3,6.5,4.9,10.7,2.8l1.3,3.3c-3,1.5-6.3,1.8-9.5,1-6-1.5-8.5-7.7-6.8-13.6.8-3,3-5.4,6-6.4,3.4-1.2,7.2-.9,10.4.9l-1.4,3.2c-1.7-.9-3.5-1.4-5.5-1.2-2.4.2-4.4,1.7-5.1,3.9-.7,2-.7,4.1,0,6.1h0Z"/>
      <path class="st1" d="M124.7,39.6h-4.3c0,0-3.5-5.2-3.5-5.2l-3.3,5.3h-4.2s5.2-7.5,5.2-7.5l-5-7.1h4.4s3.1,4.6,3.1,4.6l3-4.7h4.2s-5,7.1-5,7.1l5.3,7.6Z"/>
      <path class="st1" d="M107.1,25h-3.9v14.7h3.9v-14.7Z"/>
      <path class="st1" d="M105.1,22.8c1.3,0,2.3-1,2.3-2.3s-1-2.3-2.3-2.3-2.3,1-2.3,2.3,1,2.3,2.3,2.3Z"/>
      <path class="st1" d="M135.9,38c-2.3,2.5-6.9,2.7-9,.2-1-1.1-1.1-2.6-.6-4.1.9-3,6-3.5,9.3-3.5.4-1.4-.5-2.6-2-2.7-2-.2-3.9.1-5.9.8l-.4-2.9c2.4-1.1,5.2-1.5,7.8-1,2.5.4,4.3,2.4,4.4,5v9.9c0,0-3.3,0-3.3,0,0-.6,0-1-.2-1.6h0ZM135.7,34.7v-1.7c-2.6-.2-6,.3-5.7,2.4.1.9.8,1.4,1.7,1.5,1.7.3,3.5-.5,4-2.3h0Z"/>
      <path class="st1" d="M99.1,27.6c-.5.8.3,1.7-.2,3.6v2.1c-.6,2.7.6,4.4-.2,6h-2.3s0-1.2,0-1.2c.5-.3-1.4-.9-2.1-.7l-1.8.5c-.9.5-1.6.8-2.7.9-.5,0-1.1.4-1.7.2-2.1-1.3-2.2-4.5-1-6,.9-1.2,2.3-1.9,3.8-2.1l4.9-.5c.2-.7,0-1.4-.4-2-1.2-1.4-4.9-.7-7.3,0l-.4-2.9c4-1.6,9.8-2,11.5,1.9h0ZM95.9,34.7v-1.7c-2.7-.1-5.9.2-5.6,2.5.1.8.7,1.3,1.6,1.5,1.7.4,3.6-.4,4.1-2.3h0Z"/>
      <path class="st1" d="M96.3,39.3h2.3c.8-1.6-.3-3.3.2-6v-2.1c.6-1.8-.2-2.8.3-3.6.4.8.6,1.7.6,2.8v9.3s-3.4,0-3.4,0c0-.2,0-.3,0-.4h0Z"/>
      <path class="st1" d="M96.3,38.2c-.3,0-.4.1-.7.4-2.2,1.8-5.4,2-7.6.5.5.2,1.1-.2,1.7-.2,1.1,0,1.8-.4,2.7-.9l1.8-.5c.8-.2,2.7.4,2.1.7h0Z"/>
      <path class="st1" d="M119.4,69.4c0-.8.2-1.3.4-1.9,1.5.7,3.1,1.1,4.8.8,2.2-.3,3.4-2.5,2.9-4.9-1.2,1.3-2.7,1.8-4.5,1.6-1.4-.2-2.9-.9-3.8-2.4-1.4-2.4-1.4-5.6,0-8,.9-1.4,2.2-2.3,3.5-2.5,1.8-.3,3.4.2,4.6,1.3.4-.1.5-.6.4-1,.7-.2,1.3-.1,2.1,0l-.2,12.6c0,1.9-1.2,3.8-3,4.5-2.4.9-5,.7-7.4-.2h0ZM127.6,60.7c.2-1.4.1-2.8,0-4.2-.1-1.5-1.4-2.5-2.8-2.7-1.3-.2-2.7.5-3.5,1.7-1,1.7-1,3.8-.2,5.5.6,1.4,1.9,2.1,3.4,2.1,1.3,0,2.8-.9,3-2.5h0Z"/>
      <path class="st1" d="M104.4,62.7c.3.6.4,1.1.5,1.7-1.9.9-4.1,1.2-6.2.7-3.9-.9-5.2-5.1-4.1-8.9.6-1.9,2.1-3.4,3.7-3.8,2.1-.6,4.2-.3,5.7,1.2s1.7,3.7,1.5,5.6h-8.9c-.2,2.2,1.3,4.1,3.6,4.3,1.4.1,2.7-.2,4.2-.8h0ZM103.3,57.4c0-1.5-.5-2.5-1.3-3.1-.9-.7-2.1-.7-3.1-.4-1.4.5-2.3,2-2.4,3.5h6.7Z"/>
      <path class="st1" d="M142.4,62.6c.3.6.4,1.1.6,1.7-1.9.9-4,1.2-6.2.7-2.3-.5-4-2.3-4.4-4.7-.3-2,0-4.2,1.1-5.8,1.1-1.7,2.8-2.5,4.7-2.5,2.2,0,4,1,4.9,3,.6,1.3.6,2.8.5,4.2h-8.9c0,2.3,1.5,4.1,3.8,4.3,1.4.1,2.6-.1,4.1-.8h0ZM141.3,57.4c0-1.5-.5-2.4-1.2-3-.8-.7-2-.8-3.1-.5-1.5.5-2.4,2-2.5,3.5h6.7Z"/>
      <path class="st1" d="M176.8,62.7l.6,1.6c-1.6.8-3.2,1-5,.9-3.1-.1-5.4-2.4-5.7-5.4-.4-4.1,1.7-7.7,5.9-7.8,2.5,0,4.6,1.5,5.2,3.9.3,1,.3,2.1.1,3.2h-9c0,2,1.1,3.7,3,4.2,1.6.3,3.1,0,4.8-.7h0ZM175.7,57.4c0-1.3-.4-2.3-1.2-3.1-1.2-.7-2.8-.8-4,0-1,.7-1.5,1.9-1.6,3.1h6.7Z"/>
      <path class="st1" d="M75.4,56.8v8.1c0,0-2.4,0-2.4,0v-12.6s2,0,2,0c0,.6,0,1,.3,1.7.9-1.4,2.2-1.9,3.8-2.1,2.5-.2,4.6,1.5,4.6,4.1v8.8s-2.2,0-2.2,0v-8.4c0-1.7-1.4-2.7-3-2.6-1.6,0-3.1,1.1-3.1,2.9Z"/>
      <path class="st1" d="M92.7,63.2l.2,1.7c-1.1.3-2.4.5-3.6.1s-1.9-1.5-1.9-2.7v-8.2c-.8-.1-1.3,0-1.9,0v-1.7s1.9,0,1.9,0v-3.3s2.3-.4,2.3-.4v3.6s3.2,0,3.2,0v1.7s-3.2,0-3.2,0v7.6c0,.7.4,1.4,1,1.6s1.3,0,2-.1Z"/>
      <path class="st1" d="M165.4,63.2l.2,1.7c-1,.3-2,.3-3.1.2-1.4-.2-2.3-1.4-2.3-2.8v-8.2c0,0-2,0-2,0v-1.7s1.9,0,1.9,0v-3.3c0,0,2.3-.5,2.3-.5v3.7s3.1,0,3.1,0v1.6s-3.1,0-3.1,0v7.8c0,.9.7,1.6,1.6,1.5l1.4-.2h0Z"/>
      <path class="st1" d="M155.2,53.1c-.3.9,0,2.3-.7,3.1-.2-.9-.4-1.2-.9-1.5-1.1-.7-2.2-1-3.5-.5-1,.5-2,1.5-2,2.9v7.9h-2.3v-12.6c0,0,2,0,2,0,0,.6,0,1.1.2,1.6,1.8-2.4,5.2-2.7,7.2-.9h0Z"/>
      <path class="st1" d="M110.9,65.1c-.6.1-1.5.3-2.1,0-.6-.3-.8-1.1-.8-1.8v-16.7s2.3,0,2.3,0v16.3s.7,2.4.7,2.4h0Z"/>
      <path class="st1" d="M67.1,47.2v17.8s2.3,0,2.3,0v-17.8s-2.3,0-2.3,0Z"/>
      <path class="st1" d="M113.6,52.4v12.6s2.3,0,2.3,0v-12.6s-2.3,0-2.3,0Z"/>
      <path class="st1" d="M153.6,54.7c.4.3.7.7.9,1.5.7-.8.4-2.2.7-3.1.7.6,1.3,1.5,1.3,2.6v9.3c.1,0-2.3,0-2.3,0v-7.1c0-1.2-.1-2.2-.6-3.2Z"/>
      <path class="st1" d="M114.7,49.9c.8,0,1.4-.6,1.4-1.4s-.6-1.4-1.4-1.4-1.4.6-1.4,1.4.6,1.4,1.4,1.4Z"/>
      <path class="st8" d="M41.7,27.2l-.7.8c0,0-.1.3-.2.3-.9.7-1.5,1.7-2,2.6-.3.3-.8.7-1.1,1.1l-1.4,1.7c-.2.3-.7.7-1.1,1.1-.7-.3-1.1-.9-1.5-1.4l-1.7-2c-.4-.5-.7-.9-1.2-1.4-.4-.4-.8-1.2-1.4-1.5-.2-.7-.9-1.3-1.4-1.8l-.9-1c-.2-.2-.4-.3-.6-.3,0-.2,0-.5-.2-.7l-2.5-3.3c-4.7-6.7-2.7-15.9,4.5-19.8,5.6-3.1,12.5-2,16.8,2.7,4.3,4.7,4.7,11.8,1,17.1l-4.3,5.7h0ZM27.6,19.8c2.2,2.7,6.2,3.2,8.7.8l5.2-5.1c2.2-2.2,2.3-5.7.4-7.9-1.9-2.3-5.4-3.2-7.9-1.3l-6.3,5.9c-2.1,2-2.1,5.4-.3,7.6h0Z"/>
      <path d="M29.3,28.6c.2.7.5,1.5,1.4,1.5.4.4.8.9,1.2,1.4-1.5.1-3.3-.3-3.6-1.9l-.5-2.4c.1-.1.2-.3.2-.4.5.5,1.2,1.1,1.4,1.8h0Z"/>
      <path class="st0" d="M40.7,28.4l.6,1.6c0,.2,0,.5,0,.7,0,.2-.4.4-.7.3h-1.8c.5-1,1.2-2,2-2.7Z"/>
      <path class="st6" d="M30.7,30.1c-.9,0-1.2-.7-1.4-1.5.6.3,1,1,1.4,1.5Z"/>
      <path class="st9" d="M27.6,19.8c-1.8-2.3-1.8-5.7.3-7.6l6.3-5.9c2.4-1.9,6-1,7.9,1.3,1.9,2.3,1.8,5.8-.4,7.9l-5.2,5.1c-2.5,2.4-6.5,2-8.7-.8h0ZM38.2,15.7l2.1-2.2c1-1.5.8-3.4-.3-4.7-1.1-1.3-3.1-1.7-4.6-.7-1,.6-1.7,1.5-2.5,2.4l5.3,5.2h0ZM36.4,17.3l-5.1-5.2-1.8,1.7c-1.3,1.5-1.1,3.7,0,5,1.3,1.4,3.6,1.7,5,.4.7-.6,1.3-1.1,1.8-1.8h0Z"/>
      <path class="st1" d="M38.2,15.7l-5.3-5.2c.9-.9,1.6-1.8,2.5-2.4,1.5-1,3.5-.5,4.6.7,1.1,1.3,1.2,3.2.3,4.7l-2.1,2.2h0Z"/>
      <path class="st1" d="M36.4,17.3c-.5.8-1.1,1.3-1.8,1.8-1.5,1.3-3.7,1-5-.4-1.2-1.3-1.4-3.5,0-5l1.8-1.7,5.1,5.2h0Z"/>
      <path d="M26.3,25.5c.2,0,.4,0,.6.3l.9,1c0,.2,0,.3-.2.4-.2-.3-.6-.3-1.1-.4l-8.8-.9c-.5,0-.9,0-1.2,0-.5,0-.8,0-1.2.2-.6.3-1,.6-1.6,1.1l-8.8,7.9c-.8.7-1.2,1.9-1.2,3v5.9s0,.7,0,.7v22.4c0,1.9,1.3,3.4,3,3.9l12.8,3.6c1.1.3,2.2.2,3.2.2.4,0,1,0,1.2-.4.8.2,1.5.2,2.3,0l27.7-3.4c2.3-.3,3.5-2.4,3.5-4.5v-21.9c0,0,0-.7,0-.7v-5.6c0-1.4-1.2-2.1-2.1-2.9l-6.1-5.4c-.5-.5-1.3-.9-2-.9l-5.2-.5c-.5,0-1-.2-1.3-.7l.7-.8,6.1.8c1.5.2,2.6,1.2,3.7,2.2l6.2,5.6c.8.7,1.2,2,1.2,3.1v8.9c-.4.2-.4.9,0,1.2v3.9c-.3,0-.2.3-.2.5,0,.2,0,.4.3.5v13.7c0,1-.4,1.9-.9,2.6-1.1,1.6-2.8,2.3-4.7,2.5l-28.2,3.4c-2.5.3-4.7.2-7-.4l-10.8-3.1c-1.7-.5-3-1.3-3.9-2.7-.6-.9-.7-1.9-.7-3.1v-28.4c0-1.7.6-3.1,1.8-4.2l8.5-7.6c1.5-1.3,3-1.9,5-1.7l8.4.8h0Z"/>
      <path class="st11" d="M58.8,48.9c-.3-.2-.4-1,0-1.2v1.2Z"/>
      <path class="st11" d="M58.8,53.8c-.3,0-.3-.3-.3-.5s0-.4.2-.5v1Z"/>
      <path class="st9" d="M33.5,33.5c.4.5.8,1.2,1.5,1.4.4-.4.9-.8,1.1-1.1l17.8,2c.6,0,1,.2,1.5-.3.9.8,2,1.5,2,2.9v5.6c0,0-36.6,0-36.6,0v-10c0-.7-.4-1.3-.8-1.9l-.8-1.2c.6-.1,1.1.1,1.7.5,1,.7,2.3,1,3.6,1.2l7.1.9c.6,0,1.2.2,1.8,0h0ZM53.5,38.7l-27.2-.6c-.9,0-1.5.7-1.4,1.4,0,.8.7,1.2,1.6,1.2l26.7.5c.8,0,1.3-.5,1.4-1.1,0-.6-.2-1.5-1.1-1.5h0Z"/>
      <path class="st0" d="M55.5,35.5c-.5.4-.9.3-1.5.3l-17.8-2,1.4-1.7,3,.2c1.1,0,2.1-.8,2.1-1.9l-.5-1.7,5.2.5c.7,0,1.5.5,2,.9l6.1,5.4h0Z"/>
      <path class="st3" d="M27.7,27.3l.5,2.4c.4,1.6,2.1,2,3.6,1.9l1.7,2c-.6.2-1.1.2-1.8,0l-7.1-.9c-1.3-.2-2.5-.5-3.6-1.2-.5-.4-1-.6-1.7-.5l-2.4-3.5c-.3-.5-.6-.9-.5-1.5.4,0,.8,0,1.2,0l8.8.9c.4,0,.8.1,1.1.4h0Z"/>
      <path d="M42.2,28.7l.5,1.7c0,1.1-1,1.9-2.1,1.9l-3-.2c.3-.4.8-.8,1.1-1.1h1.8c.3,0,.6,0,.7-.3.1-.2.1-.5,0-.7l-.6-1.6c0,0,.1-.3.2-.3.3.5.8.6,1.3.7h0Z"/>
      <path class="st5" d="M57.5,44.8v21.9c0,2.1-1.1,4.3-3.4,4.5l-27.7,3.4c-.9.1-1.6.1-2.3,0-1.7-.5-3.1-2-3.1-4v-25.8s36.6,0,36.6,0h0ZM43.4,52.9c1.3-.3,1.9-1.4,1.8-2.5-.1-1-.9-2-2.1-2h-5.6c-1.3,0-2.2,1-2.3,2.2,0,1.2.7,2.1,1.9,2.4h6.2s0,0,0,0Z"/>
      <path class="st7" d="M22.8,74.9c-1,0-2.1.1-3.2-.2l-12.8-3.6c-1.7-.5-3-2-3-3.9v-22.4s16.3,0,16.3,0v25.4c0,2.1,1,3.8,2.7,4.8h0ZM14.4,51.1c.2,0,.2-.5,0-.6l-5.6-.5c-.2,0-.4,0-.5,0,0,0,0,.5,0,.5l6,.5h0ZM14.4,53.5c.2,0,.2-.5,0-.5h-.3c0-.1-5.2-.6-5.2-.6-.3,0-.5,0-.5.3,0,.1,0,.3.3.3l5.7.5h0ZM14.5,56.1c.1-.1.1-.5,0-.6,0,0-.2-.1-.3-.1l-5.4-.6c-.3,0-.4.1-.4.2,0,.1,0,.4.3.4l5.9.7h0ZM14.5,58.8c.1,0,.1-.6,0-.6s-.2,0-.3-.1l-5.6-.7c-.2,0-.3.3-.2.4,0,.1.2.2.4.3l5.7.7h0ZM14.2,61.5c.3,0,.4-.3.3-.4,0,0,0-.2-.2-.3l-5.5-.7c-.2,0-.4,0-.5,0,0,0,0,.4,0,.5l5.8.8h0Z"/>
      <path class="st7" d="M3.8,44v-5.9c0-1.1.3-2.2,1.2-3l8.8-7.9c.5-.5,1-.8,1.6-1.1.4.2.3.6.5.9l3.4,5.2c.5.8.8,1.6.8,2.5v9.2s-16.3,0-16.3,0h0Z"/>
      <path d="M16.6,26c0,.6.2,1,.5,1.5l2.4,3.5.8,1.2c.4.6.7,1.2.7,1.9v10s36.7,0,36.7,0v.7c0,0-36.7,0-36.7,0v25.8c0,2,1.4,3.5,3.1,4-.2.5-.8.4-1.2.4-1.8-1-2.8-2.6-2.8-4.8v-25.4s-16.3,0-16.3,0v-.7s16.3,0,16.3,0v-9.2c0-1-.2-1.8-.8-2.5l-3.4-5.2c-.2-.3-.1-.8-.5-.9.4-.2.7-.2,1.2-.2h0Z"/>
      <path class="st1" d="M53.5,38.7c.9,0,1.2.9,1.1,1.5,0,.6-.6,1.1-1.4,1.1l-26.7-.5c-.9,0-1.5-.4-1.6-1.2,0-.7.5-1.5,1.4-1.4l27.2.6h0Z"/>
      <path class="st8" d="M43.4,52.9h-6.2c-1.2-.3-2-1.3-1.9-2.4,0-1.1,1-2.2,2.3-2.2h5.6c1.2,0,2,1,2.1,2,.1,1.2-.5,2.2-1.8,2.5h0Z"/>
      <path class="st4" d="M14.5,56.1l-5.9-.7c-.2,0-.3-.2-.3-.4,0-.1.1-.3.4-.2l5.4.6c.2,0,.3,0,.3.1.1,0,.1.4,0,.6h0Z"/>
      <path class="st4" d="M14.4,53.5l-5.7-.5c-.2,0-.3-.2-.3-.3,0-.2.2-.3.5-.3l5.2.5h.3c.1.2.1.7,0,.6h0Z"/>
      <path class="st4" d="M14.5,58.8l-5.7-.7c-.2,0-.4-.2-.4-.3,0,0,0-.4.2-.4l5.6.7c.2,0,.3.1.3.1,0,0,0,.6,0,.6h0Z"/>
      <path class="st4" d="M14.2,61.5l-5.8-.8c-.1,0-.1-.4,0-.5.1,0,.3-.1.5,0l5.5.7c.2,0,.2.2.2.3,0,.1,0,.4-.3.4h0Z"/>
      <path class="st4" d="M14.4,51.1l-6-.5c-.1,0-.1-.4,0-.5,0,0,.3-.1.5,0l5.6.5c.2,0,.1.6,0,.6h0Z"/>
      <path class="st1" d="M141,50.5l-2.9-2.9h0l-2.9,2.9h-1.2l3.6-4.1h1.1l3.6,4.1h-1.2Z"/>
    </g>
  </g>
</svg>